<svg width="120" height="38" viewBox="0 0 120 38" fill="none" xmlns="http://www.w3.org/2000/svg">
<g clip-path="url(#clip0_366_941)">
<path fill-rule="evenodd" clip-rule="evenodd" d="M13.4147 7.53125V17.2049H4.69944V7.53125H0.53125V30.5773H4.69944V21.2593H13.4147V30.5773H17.5593V7.53125H13.4147Z" fill="#485864"/>
<path fill-rule="evenodd" clip-rule="evenodd" d="M30.8128 23.1348C30.8128 25.0553 29.2735 26.6201 27.3789 26.6201C25.4843 26.6201 23.9448 25.0553 23.9448 23.1348V13.2715H20.0371V23.1348C20.0371 27.2366 23.3527 30.6034 27.4025 30.6034C31.4523 30.6034 34.7442 27.2603 34.7442 23.1348V13.2715H30.8128V23.1348Z" fill="#485864"/>
<path fill-rule="evenodd" clip-rule="evenodd" d="M59.9396 14.2908C59.9396 12.2517 61.2423 11.6116 62.7106 11.6116C63.871 11.6116 65.4104 12.5125 66.4051 13.5795L68.9629 10.4972C67.684 8.71895 65.0552 7.50977 62.9237 7.50977C58.6608 7.50977 55.5821 10.0467 55.5821 14.2434C55.5821 22.0439 64.9842 19.5544 64.9842 23.9408C64.9842 25.2684 63.7053 26.4777 62.2133 26.4777C59.8686 26.4777 59.1345 25.3159 58.045 24.1067L55.2031 27.1178C57.0266 29.394 59.2765 30.5558 61.9764 30.5558C66.0262 30.5558 69.2944 27.9951 69.2944 23.9881C69.3181 15.3577 59.9396 18.037 59.9396 14.2908Z" fill="#485864"/>
<path fill-rule="evenodd" clip-rule="evenodd" d="M118.041 26.9006C115.721 26.9006 115.058 25.8811 115.058 24.3163V17.3929H118.68V13.9076H115.058V9.28418L111.078 11.1098V25.2173C111.078 28.8212 113.518 30.6468 116.881 30.6468C117.402 30.6468 118.089 30.6231 118.444 30.5282L119.415 26.877C118.988 26.877 118.468 26.9006 118.041 26.9006Z" fill="#485864"/>
<path fill-rule="evenodd" clip-rule="evenodd" d="M45.7446 26.5706C43.2816 26.5706 41.2685 24.5315 41.2685 22.0183C41.2685 19.5051 43.2816 17.466 45.7446 17.466C48.2076 17.466 50.2206 19.5051 50.2206 22.0183C50.2206 24.5315 48.2076 26.5706 45.7446 26.5706ZM45.7683 13.3879C43.8263 13.3879 42.4527 13.957 41.1501 15.261V7.67383H37.2188V21.7338C37.2188 26.9974 40.9606 30.6013 45.1762 30.6013C49.8417 30.6013 53.9625 26.9263 53.9625 21.9946C53.9388 17.1104 50.1496 13.3879 45.7683 13.3879Z" fill="#485864"/>
<path fill-rule="evenodd" clip-rule="evenodd" d="M80.3405 26.2634C77.8775 26.2634 75.8645 24.2243 75.8645 21.711C75.8645 19.1978 77.8775 17.1588 80.3405 17.1588C82.8036 17.1588 84.8166 19.1978 84.8166 21.711C84.8166 24.2243 82.8036 26.2634 80.3405 26.2634ZM88.5349 21.8059C88.5349 16.8742 84.4376 13.1992 79.7484 13.1992C75.5329 13.1992 71.791 16.8031 71.791 22.0667V36.1267H75.7224V28.5396C77.0249 29.8436 78.3985 30.4127 80.3405 30.4127C84.7692 30.4127 88.5349 26.6902 88.5349 21.8059Z" fill="#485864"/>
<path fill-rule="evenodd" clip-rule="evenodd" d="M99.9414 26.2004C97.4784 26.2004 95.4891 24.1613 95.4891 21.6717C95.4891 19.1823 97.5021 17.1432 99.9414 17.1432C102.381 17.1432 104.394 19.1823 104.394 21.6717C104.394 24.1851 102.404 26.2004 99.9414 26.2004ZM101.268 12.9939V8.96328C102.286 8.46537 103.02 7.39843 103.02 6.18922V6.09439C103.02 4.38727 101.67 3.01209 99.9651 3.01209H99.8704C98.2126 3.01209 96.8153 4.41098 96.8153 6.09439V6.18922C96.8153 7.42214 97.5257 8.46537 98.5678 8.98699V12.9939C97.0284 13.231 95.6075 13.8712 94.4707 14.8196L83.695 6.23664C83.766 5.95212 83.8135 5.66759 83.8135 5.35936C83.7898 3.43887 82.274 1.87402 80.3794 1.87402C78.4848 1.87402 76.9453 3.43887 76.9453 5.35936C76.9453 7.27987 78.4848 8.84472 80.3794 8.84472C80.9951 8.84472 81.5636 8.65505 82.0845 8.37053L92.7656 16.8349C91.8656 18.2339 91.3208 19.8936 91.3208 21.6955C91.3208 23.5686 91.9129 25.3231 92.8839 26.7695L89.6157 30.0413C89.3552 29.9702 89.0947 29.9229 88.8105 29.9229C87.2474 29.9229 85.9922 31.2032 85.9922 32.768C85.9922 34.3566 87.2474 35.6132 88.8105 35.6132C90.3736 35.6132 91.6287 34.3329 91.6287 32.768C91.6287 32.4835 91.5814 32.199 91.5104 31.9382L94.7075 28.6662C96.1759 29.8043 97.9994 30.4682 99.9651 30.4682C104.773 30.4682 108.633 26.5087 108.633 21.6481C108.61 17.2854 105.436 13.6341 101.268 12.9939Z" fill="#F77821"/>
</g>
<defs>
<clipPath id="clip0_366_941">
<rect width="119.946" height="36.09" fill="white" transform="translate(0 0.955078)"/>
</clipPath>
</defs>
</svg>
