<svg width="150" height="55" viewBox="0 0 150 55" fill="none" xmlns="http://www.w3.org/2000/svg">
<g clip-path="url(#clip0_366_985)">
<path d="M43.3356 25.1447C42.6539 24.5604 41.7776 24.1708 40.8037 24.1708C40.122 24.1708 39.2456 24.5604 39.2456 25.3395C39.2456 26.2159 40.2194 26.5081 40.901 26.7028L41.8749 26.995C43.92 27.5793 45.4781 28.5531 45.4781 30.8903C45.4781 32.351 45.0885 33.8118 44.0173 34.7856C42.8488 35.7595 41.388 36.1491 39.9273 36.1491C38.077 36.1491 36.3241 35.5647 34.8633 34.4934L36.4215 31.4746C37.3953 32.2536 38.4665 32.9354 39.7324 32.9354C40.6089 32.9354 41.5827 32.4485 41.5827 31.4746C41.5827 30.4034 40.122 30.0139 39.3429 29.8191C37.0058 29.1375 35.4475 28.5531 35.4475 25.729C35.4475 22.8075 37.4926 20.8599 40.4141 20.8599C41.8749 20.8599 43.6278 21.3468 44.8938 22.0285L43.3356 25.1447Z" fill="#282825"/>
<path d="M53.756 29.5289C53.5612 28.5551 52.6848 27.9708 51.8083 27.9708C50.8345 27.9708 49.958 28.5551 49.7633 29.5289H53.756ZM56.9696 31.4766H49.6659C49.6659 32.9373 50.445 33.7164 51.8083 33.7164C52.5874 33.7164 53.0743 33.5216 53.4639 32.84H56.7749C56.1906 35.2746 54.0481 36.2483 51.8083 36.2483C48.5947 36.2483 46.1602 34.398 46.1602 30.9897C46.1602 27.6786 48.3999 25.731 51.6135 25.731C55.022 25.731 56.9696 27.8735 56.9696 31.1844V31.4766Z" fill="#282825"/>
<path d="M61.258 28.0666C62.037 26.6058 63.1082 26.2163 64.4717 26.2163H65.1534V29.5273C64.569 29.2352 64.1795 29.2352 63.6926 29.2352C61.745 29.2352 61.258 30.5011 61.258 32.1566V36.1494H57.8496V26.3137H61.258V28.0666Z" fill="#282825"/>
<path d="M70.799 31.2785L73.1363 26.312H77.0314L71.8699 36.0503H69.6303L64.5664 26.312H68.4617L70.799 31.2785Z" fill="#282825"/>
<path d="M80.9296 36.0519H77.3263V26.2162H80.9296V36.0519ZM81.1244 22.9052C81.1244 23.9764 80.2475 24.8529 79.1765 24.8529C78.1055 24.8529 77.2285 23.9764 77.2285 22.9052C77.2285 21.834 78.1055 20.9575 79.1765 20.9575C80.2475 20.9575 81.1244 21.834 81.1244 22.9052Z" fill="#282825"/>
<path d="M89.789 29.2368C89.2046 28.8472 88.6202 28.5551 87.9381 28.5551C86.5753 28.5551 85.5036 29.6263 85.5036 30.9897C85.5036 32.4504 86.5753 33.4243 87.9381 33.4243C88.5224 33.4243 89.1069 33.1321 89.6912 32.7426V35.6641C88.815 36.0537 88.0359 36.2483 87.2567 36.2483C84.3349 36.2483 81.9004 34.1059 81.9004 31.0871C81.9004 27.9708 84.3349 25.731 87.4515 25.731C88.2306 25.731 89.1069 25.9257 89.789 26.3153V29.2368Z" fill="#282825"/>
<path d="M98.2614 29.5289C98.0666 28.5551 97.1904 27.9708 96.3142 27.9708C95.3402 27.9708 94.4641 28.5551 94.2692 29.5289H98.2614ZM101.475 31.4766H94.1715C94.1715 32.9373 94.9507 33.7164 96.3142 33.7164C97.0933 33.7164 97.58 33.5216 97.9696 32.84H101.28C100.696 35.2746 98.5539 36.2483 96.3142 36.2483C93.1005 36.2483 90.666 34.398 90.666 30.9897C90.666 27.6786 92.9058 25.731 96.1194 25.731C99.5278 25.731 101.475 27.8735 101.475 31.1844V31.4766Z" fill="#282825"/>
<path d="M108.39 36.0502H104.787V24.8512H101.574V21.7349H111.506V24.8512H108.39V36.0502Z" fill="#282825"/>
<path d="M115.791 36.0519H112.285V26.2162H115.791V36.0519ZM115.986 22.9052C115.986 23.9764 115.11 24.8529 114.038 24.8529C112.967 24.8529 112.09 23.9764 112.09 22.9052C112.09 21.834 112.967 20.9575 114.038 20.9575C115.11 20.9575 115.986 21.834 115.986 22.9052Z" fill="#282825"/>
<path d="M121.439 36.0516H117.933V29.1375H116.861V26.3134H117.933V23.2944H121.439V26.3134H123.386V29.1375H121.439V36.0516Z" fill="#282825"/>
<path d="M126.89 31.1801C126.89 32.4461 127.668 33.4199 129.129 33.4199C130.59 33.4199 131.369 32.4461 131.369 31.1801C131.369 30.0114 130.59 28.9402 129.129 28.9402C127.765 28.9402 126.89 30.0114 126.89 31.1801ZM134.777 36.0493H131.271V34.9781C130.686 35.9519 129.421 36.4388 128.35 36.4388C125.428 36.4388 123.383 34.0041 123.383 31.1801C123.383 28.356 125.428 25.9214 128.252 25.9214C129.421 25.9214 130.492 26.3109 131.271 27.1873V26.2135H134.777V36.0493Z" fill="#282825"/>
<path d="M139.354 27.5781C140.23 26.4095 141.205 26.02 142.567 26.02C145.197 26.02 146.268 27.6756 146.268 30.1101V36.1479H142.762V31.3761C142.762 30.4023 142.956 28.8442 141.205 28.8442C139.743 28.8442 139.354 29.9154 139.354 31.084V36.1479H135.848V26.3122H139.354V27.5781Z" fill="#282825"/>
<path d="M148.019 25.7273V26.1168H148.313C148.507 26.1168 148.896 26.1168 148.896 25.922C148.896 25.7273 148.702 25.7273 148.507 25.7273H148.019ZM149.091 27.188H148.799L148.409 26.4089H148.019V27.188H147.825V25.4352H148.507C148.799 25.4352 149.091 25.5325 149.091 25.922C149.091 26.2141 148.896 26.4089 148.604 26.4089L149.091 27.188ZM147.143 26.3115C147.143 26.9932 147.728 27.5776 148.409 27.5776C149.091 27.5776 149.675 26.9932 149.675 26.3115C149.675 25.6298 149.091 25.0456 148.409 25.0456C147.728 25.0456 147.143 25.5325 147.143 26.3115ZM146.852 26.3115C146.852 25.4352 147.533 24.7534 148.409 24.7534C149.286 24.7534 149.968 25.4352 149.968 26.3115C149.968 27.188 149.286 27.8697 148.409 27.8697C147.533 27.7723 146.852 27.0906 146.852 26.3115Z" fill="#282825"/>
<path d="M2.43473 38.3882C2.43473 38.3882 3.89547 38.9725 3.89547 39.5568C3.89547 39.5568 3.79811 40.0437 3.31119 40.0437C2.82428 40.0437 2.14258 39.2646 2.14258 38.875C2.14258 38.4856 2.43473 38.3882 2.43473 38.3882Z" fill="#282825"/>
<path d="M0.876474 31.0841C0.779093 30.9868 0.779093 31.0841 0.876474 31.0841C0.779093 30.9868 0.779087 30.9868 0.779087 30.9868C0.486939 31.0841 0 31.4737 0 32.1554C0 34.7846 7.10901 35.0769 11.0043 39.8486C11.3939 40.3355 12.0755 40.6276 12.7572 40.6276C13.6337 40.6276 14.51 40.5304 15.2891 40.433C15.3866 40.433 15.484 40.3355 15.484 40.2381C15.484 40.1408 15.484 40.0434 15.484 39.946C10.7122 33.4213 1.65554 34.9795 0.876474 31.0841Z" fill="#282825"/>
<path d="M11.0993 22.807C10.6123 22.3201 9.34631 22.7096 8.66468 23.2939C7.98299 23.8782 8.27511 24.2677 8.27511 24.2677C8.8594 23.4887 9.73588 23.0992 10.3202 23.0018C10.8071 23.0018 11.0993 22.807 11.0993 22.807Z" fill="#282825"/>
<path d="M25.71 24.1701C25.71 24.1701 24.7361 24.3649 23.8598 23.3911C23.8598 23.3911 24.2492 23.3911 24.3466 22.9042C24.2492 22.9042 24.8335 23.9754 25.71 24.1701ZM25.4178 28.6498C25.4178 28.6498 25.2231 29.721 23.957 29.721C22.5937 29.721 21.4251 27.8707 21.0355 23.4885C21.3278 23.9754 21.7172 24.4623 21.912 25.0466C21.912 24.4623 22.2042 23.3911 20.8408 22.4173C20.8408 22.4173 24.444 23.1963 24.5414 26.8969C24.5414 27.5786 24.1519 28.1628 23.957 28.455C23.957 28.455 23.7623 28.5524 23.8598 28.8445C23.957 29.0393 24.2492 29.0393 24.5414 28.7471C24.8335 28.455 25.4178 28.0654 25.4178 28.6498ZM20.3539 30.6948C20.3539 30.6948 19.3801 32.5451 18.0167 32.5451C17.4323 32.5451 17.0429 32.1556 17.0429 31.6687C17.0429 31.1817 17.7246 29.2341 20.5487 29.2341C21.2304 29.2341 21.7173 29.3314 21.7173 29.8185C21.8146 30.1105 21.1329 30.7922 20.3539 30.6948ZM20.3539 21.4434C20.3539 21.4434 19.9643 21.346 20.0617 20.7617C20.1592 20.5669 20.1592 20.5669 20.1592 20.2748C20.1592 19.9827 20.2566 19.6905 20.4513 19.5931C20.4513 19.5931 20.8408 19.5931 20.8408 20.6643C20.8408 21.1512 20.3539 21.4434 20.3539 21.4434ZM19.088 21.4434C18.5035 21.346 18.8931 20.4696 18.5035 20.4696C18.3089 20.4696 18.3089 21.4434 18.1141 21.346C17.7246 21.0539 18.0167 20.3722 18.0167 20.0801C18.0167 19.7879 18.2114 19.3984 17.9193 19.5931C17.6272 19.7879 17.4323 20.2748 17.3351 20.6643C17.2377 21.0539 17.4323 21.2486 17.6272 21.7356C17.8219 22.2225 17.5298 22.0277 17.5298 22.0277C16.069 21.1513 17.1402 19.2036 17.1402 19.2036C17.8219 18.1324 18.7958 18.4245 18.7958 18.4245C18.9905 18.5219 18.9905 18.6193 18.9905 18.814C18.9905 19.0088 19.088 19.1062 19.2826 19.2036C19.5749 19.301 19.6722 19.5931 19.6722 20.1774C19.6722 20.8591 19.2826 21.5408 19.088 21.4434ZM21.3278 21.346L23.7623 22.1251C23.7623 22.1251 24.2492 23.0015 23.2754 22.7094C22.399 22.4173 21.5225 22.2225 21.5225 22.2225C21.5225 22.2225 21.1329 21.9303 21.3278 21.346ZM9.34962 25.0466C7.59673 25.3387 7.01244 24.8518 7.01244 24.3649C7.01244 23.0015 11.0051 21.9303 12.0763 21.9303C12.2711 22.2225 11.8815 22.2225 11.7842 22.7094C11.5894 23.1963 11.1999 23.3911 10.6156 23.4885C10.0313 23.5858 9.44702 23.878 9.05743 24.1701C8.66793 24.4623 9.05743 24.657 9.73912 24.4623C10.4208 24.2675 10.5182 24.5597 10.8103 24.4623C11.1025 24.3649 10.8103 23.9754 11.0051 23.9754C11.1999 23.878 11.5894 24.1701 11.5894 24.1701L12.5633 24.8518L11.3946 25.4362C11.2973 25.4362 11.1999 25.5335 11.1999 25.7283C11.1999 25.923 11.7842 25.923 12.0763 25.923C12.2711 25.923 12.3685 26.3125 12.3685 26.3125C12.0763 26.7021 11.1999 26.7021 11.1999 26.7021C11.3946 27.0916 12.4658 26.9942 12.6606 27.0916C12.8554 27.0916 12.8554 27.3838 13.0502 27.8707C13.1475 28.3577 13.8293 28.5524 13.8293 28.5524C14.024 29.3314 13.1475 29.5262 12.5633 29.5262C8.96011 29.3314 9.34962 25.0466 9.34962 25.0466ZM9.73912 19.5931C9.64173 19.5931 9.64173 19.5931 9.73912 19.5931C9.44694 18.1324 10.0313 16.4769 10.0313 16.4769C10.0313 16.4769 8.57053 17.6455 8.66793 19.5931C7.40194 19.5931 5.55165 19.6905 4.48043 20.6643C2.92231 21.9303 2.72754 24.3649 2.63016 25.0466C2.63016 25.0466 2.63016 25.1439 2.53276 25.1439H2.43538C2.04585 24.9492 1.26681 24.1701 1.85111 22.5146C2.63017 20.3722 4.96737 16.0873 9.54434 15.7952C9.54434 15.7952 11.0051 15.6978 11.8816 16.2821C11.8816 16.2821 11.979 16.2821 11.979 16.3795V16.4769C11.5894 16.769 10.3234 17.9376 9.93392 19.6905C9.93392 19.7879 9.83653 19.7879 9.83653 19.7879C9.83653 19.5931 9.73912 19.5931 9.73912 19.5931ZM13.1475 25.3387C13.1475 25.3387 13.5371 27.189 14.4135 27.8707C14.4135 27.8707 14.4135 28.0654 14.1214 28.0654C13.8293 28.0654 13.3423 27.6759 13.1475 26.6047C12.9528 25.6308 13.1475 25.3387 13.1475 25.3387ZM14.4135 20.6643C13.3423 20.6643 12.8554 19.6905 12.8554 19.6905C12.8554 19.6905 14.1214 20.8591 15.8743 19.8853C15.8743 19.9827 15.4848 20.6643 14.4135 20.6643ZM27.8524 22.2225C27.5602 21.6382 27.1707 21.2486 26.2943 21.0539C25.5152 20.8591 24.8335 20.9565 24.3466 21.346L22.7886 20.7617C22.5937 20.3722 22.4963 19.9826 22.3016 19.6905C22.2042 19.3983 22.0095 19.2036 21.8146 19.1062C20.7434 18.5219 17.9193 17.0612 16.8481 18.5219C16.8481 18.5219 16.7507 18.6193 16.7507 18.7167L16.3611 18.6193C16.1665 18.035 15.5821 17.5481 14.8031 17.3533C14.3162 17.2559 13.8293 17.2559 13.4397 17.4507C13.1475 17.5481 13.1475 17.9376 13.4397 18.035L14.7057 18.5219C14.9978 18.6193 15.1926 18.9114 14.9978 19.2036C14.9005 19.4957 14.6083 19.6905 14.3162 19.4957C14.3162 19.4957 13.5371 19.301 12.9528 19.1062C12.6606 19.0088 12.3685 19.301 12.4659 19.5931C12.6606 20.1774 13.2449 20.7617 14.024 20.9565C14.7057 21.1513 15.3874 20.9565 15.8743 20.6643L16.1664 20.7617C16.1664 21.4434 16.7507 22.3199 17.2377 22.612C18.0167 23.0989 18.6984 22.7094 19.4775 22.2225C19.4775 22.2225 21.5225 23.7806 20.5487 28.3577C18.0167 28.6498 17.0429 29.5262 16.1664 30.5001C15.5821 30.3053 13.8293 30.1105 12.8554 30.4026C13.1475 30.1105 13.5371 29.8183 14.1214 29.6236C14.4135 29.5262 14.5109 29.3314 14.5109 29.0393C14.5109 29.0393 15.6795 28.6498 15.6795 28.2602C15.6795 27.8707 14.2187 27.8707 13.6344 24.7544C13.5371 24.3649 13.4397 24.0727 12.8554 23.878C12.8554 23.878 12.6606 23.5858 12.9528 23.1963C13.2449 22.8068 13.3423 22.7094 13.2449 22.4173C13.1475 22.1251 12.7581 21.9303 12.7581 21.9303V21.4434C12.7581 21.4434 11.5894 20.5669 11.5894 19.301C11.5894 18.035 13.2449 16.5743 13.6344 16.1847V16.0873C13.6344 16.0873 13.6345 15.9899 13.5371 15.9899C12.9528 15.6004 11.8816 15.0161 10.1287 15.0161C3.31186 15.0161 1.75371 21.1512 0.292969 24.0728C0.292969 24.1701 0.292969 24.1701 0.292969 24.2675C1.75371 27.189 4.09092 26.8969 4.28569 29.4289C4.38307 31.3765 3.89613 31.3765 3.5066 31.3765C3.21445 31.3765 2.72754 31.0843 2.53276 30.8895H2.43538C2.43538 30.8895 2.338 30.9869 2.43538 30.9869C2.63015 31.4739 3.11708 32.6425 4.67522 32.6425C5.45428 32.6425 5.64905 31.9607 5.64905 31.2791V29.0393C5.64905 28.8445 5.55165 28.6498 5.45427 28.455C4.96736 27.9681 3.79877 26.8969 3.79877 26.0204C3.79877 25.6308 4.0909 25.4362 4.38305 25.4362C4.96735 25.4362 5.55165 26.3125 6.03857 27.4811C6.13596 27.7733 6.33071 27.9681 6.42807 28.0654H6.52546C6.52546 28.0654 6.52546 28.0654 6.52546 27.9681C6.33071 27.2865 6.33074 26.6047 6.23335 26.3125C6.23335 26.2153 6.13596 26.0204 6.03857 25.923C5.55165 25.5335 4.38305 24.3649 4.38305 22.612C4.38305 20.2748 8.18103 20.4696 8.96004 20.4696C9.15483 21.2486 9.64173 21.6382 9.93392 21.7356C8.76533 22.1251 6.23335 23.0015 6.23335 24.4623C6.23335 26.0204 8.86265 25.923 8.86265 25.923C8.86265 25.923 8.47314 29.0393 11.3946 30.0131C11.3946 30.0131 10.9078 30.5001 9.34962 30.5001C7.88884 30.5001 7.20715 29.8183 6.81764 29.0393C6.81764 29.0393 6.81764 28.9419 6.72025 28.9419C6.72025 28.9419 6.62285 28.9419 6.62285 29.0393C6.52546 29.234 6.52553 29.6236 6.72025 30.0131C7.10983 30.6948 7.69413 31.0843 7.69413 31.9607C7.69413 32.6425 7.10976 33.0319 6.81764 33.1294C7.40194 33.2268 10.0313 33.9085 11.7842 34.7849C11.979 34.6875 13.5371 33.7137 13.6344 32.3503C13.6344 32.3503 13.7319 31.4739 12.4659 31.3765C12.4659 31.3765 13.0502 31.1817 14.024 31.1817C14.9978 31.1817 16.069 31.9607 14.1214 36.0509C14.1214 36.0509 14.1214 36.0509 14.1214 36.1483C14.4135 36.343 16.6534 37.8037 18.1141 39.1671H18.2114C18.2114 39.1671 18.3089 39.1671 18.3089 39.0698C18.5037 38.875 18.8931 38.1933 19.088 36.5378C19.088 36.343 19.1854 36.2457 19.3801 36.2457C20.2566 35.9534 23.178 35.0771 24.444 33.3242C25.9047 31.2791 26.489 30.9869 26.489 30.9869C26.489 30.9869 27.4628 30.4026 27.0734 28.9419C26.8786 28.1628 25.71 26.2151 24.5414 24.1701C24.8335 24.3649 25.1257 24.4623 25.4178 24.5597C26.0995 24.7544 26.7812 24.657 27.2681 24.3649C27.3655 24.2675 27.4628 24.1701 27.4628 24.0728C27.4628 23.9754 27.3655 23.878 27.2681 23.7806L26.0022 23.2937C25.71 23.1963 25.5152 22.8068 25.6126 22.5146C25.71 22.2225 26.0995 22.0277 26.3916 22.1251L27.5603 22.5146C27.6576 22.5146 27.755 22.5146 27.8524 22.4173C27.9498 22.3199 27.8524 22.4173 27.8524 22.2225Z" fill="#282825"/>
<path d="M10.6172 25.9214C10.6172 25.9214 10.1303 26.0188 10.2277 26.7978C10.3251 27.4794 10.9094 27.4794 10.9094 27.4794C10.4225 26.8952 10.6172 25.9214 10.6172 25.9214Z" fill="#282825"/>
<path d="M2.14531 35.5647C3.89821 36.5385 7.79356 37.7071 8.57265 39.7521C8.57265 39.7521 8.86476 40.239 7.30659 40.239C6.13802 40.239 5.84588 39.9469 5.06682 38.973C3.89821 37.6097 1.46362 36.7333 1.46362 35.6621C1.36624 35.7594 1.46363 35.1751 2.14531 35.5647Z" fill="#282825"/>
</g>
<defs>
<clipPath id="clip0_366_985">
<rect width="149.968" height="26.78" fill="white" transform="translate(0 14.1099)"/>
</clipPath>
</defs>
</svg>
