<svg width="111" height="78" viewBox="0 0 111 78" fill="none" xmlns="http://www.w3.org/2000/svg">
<g clip-path="url(#clip0_366_1013)">
<path fill-rule="evenodd" clip-rule="evenodd" d="M46.5728 8.39681C50.1217 4.69817 55.0611 2.40776 60.5178 2.40776C67.7935 2.40776 74.0991 6.45441 77.4944 12.4839C80.5098 11.1364 83.7717 10.4404 87.074 10.4404C100.17 10.4404 110.8 21.164 110.8 34.3966C110.8 47.6291 100.17 58.3528 87.074 58.3528C85.4734 58.3528 83.9132 58.1909 82.3853 57.8874C79.4144 63.1885 73.7353 66.79 67.268 66.79C64.6367 66.7941 62.0377 66.1992 59.669 65.0419C56.6577 72.1235 49.6448 77.1009 41.4799 77.1009C33.3149 77.1009 25.7159 71.7188 22.9269 64.1516C21.686 64.4146 20.4208 64.5441 19.1516 64.5441C9.00612 64.5441 0.800781 56.208 0.800781 45.97C0.800781 39.0907 4.4952 33.1016 9.97621 29.8643C8.8121 27.1814 8.21388 24.288 8.21792 21.3663C8.21792 9.5501 17.7976 0 29.6003 0C36.5122 0 42.6965 3.29802 46.5769 8.41704" fill="#00A1E0"/>
<path d="M48.3466 33.7775C48.1849 33.1745 47.7888 32.5635 47.5301 32.2842C47.1178 31.8432 46.7176 31.5316 46.3175 31.3616C45.7395 31.1148 45.117 30.9893 44.4905 30.9893C43.6942 30.9893 42.9707 31.1229 42.3846 31.398C41.7985 31.6732 41.3054 32.0495 40.9173 32.5189C40.5293 32.9884 40.2383 33.5428 40.0523 34.1781C39.8664 34.8053 39.7734 35.4932 39.7734 36.2135C39.7734 36.9338 39.8704 37.6339 40.0645 38.2531C40.2585 38.8762 40.5697 39.4225 40.986 39.8758C41.4064 40.333 41.944 40.6891 42.5907 40.94C43.2334 41.1909 44.0095 41.3164 44.9068 41.3164C46.75 41.3123 47.7201 40.8996 48.1162 40.677C48.1849 40.6365 48.2536 40.5677 48.1687 40.3735L47.7524 39.204C47.6877 39.03 47.5139 39.0948 47.5139 39.0948C47.0572 39.2647 46.4104 39.5723 44.8947 39.5682C43.9084 39.5682 43.1728 39.2728 42.712 38.8155C42.2431 38.3461 42.0087 37.6622 41.9723 36.691H48.3587C48.3587 36.691 48.5285 36.691 48.5446 36.5292C48.5527 36.4604 48.7629 35.2181 48.3547 33.7815H48.3506L48.3466 33.7775ZM42.0006 35.1088C42.0895 34.5018 42.2552 33.996 42.518 33.6035C42.91 33.0045 43.5042 32.6768 44.3409 32.6768C45.1776 32.6768 45.7314 33.0045 46.1275 33.6035C46.3902 34 46.5034 34.522 46.5479 35.1088H42.0006Z" fill="#FFFFFE"/>
<path d="M21.3812 35.2784L21.1871 35.2177C20.0675 34.8535 19.1015 34.5378 19.1015 33.8013V33.7649C19.1015 33.1336 19.6673 32.6683 20.5404 32.6683C21.5105 32.6683 22.6665 32.992 23.4062 33.4007C23.4062 33.4007 23.6245 33.5424 23.7053 33.332C23.7498 33.2187 24.1257 32.207 24.1661 32.0937C24.2106 31.9764 24.1338 31.8873 24.057 31.8388C23.2082 31.3208 22.036 30.9688 20.8234 30.9688H20.597C18.5315 30.9688 17.0885 32.2192 17.0885 34.0078V34.0442C17.0885 35.9299 18.6811 36.5449 20.1686 36.9698L20.407 37.0428C21.4903 37.3746 22.428 37.666 22.428 38.4267V38.4632C22.428 39.1631 21.8177 39.6852 20.8395 39.6852C20.4596 39.6852 19.247 39.677 17.9333 38.8475C17.7757 38.7544 17.6827 38.6898 17.5614 38.6129C17.4968 38.5724 17.3351 38.5036 17.2664 38.714L16.8217 39.9523C16.753 40.1344 16.846 40.1748 16.8702 40.2072C17.0764 40.3569 17.2866 40.4662 17.4968 40.5876C18.6205 41.1825 19.6795 41.3564 20.787 41.3564C23.0424 41.3564 24.445 40.1547 24.445 38.2204V38.1838C24.445 36.3952 22.8605 35.7438 21.3812 35.2784Z" fill="#FFFFFE"/>
<path d="M32.8169 31.8578C32.146 31.271 31.1637 30.9756 29.8905 30.9756C29.4135 30.9756 28.6415 31.0404 28.1807 31.1334C28.1807 31.1334 26.7903 31.4046 26.2163 31.8538C26.2163 31.8538 26.091 31.9306 26.1597 32.1087L26.6124 33.3227C26.669 33.4805 26.8226 33.4279 26.8226 33.4279C26.8226 33.4279 26.8711 33.4077 26.9277 33.3753C28.1524 32.7076 29.7046 32.7278 29.7046 32.7278C30.3917 32.7278 30.9253 32.8654 31.281 33.1406C31.6286 33.4077 31.8064 33.8123 31.8064 34.6621V34.9333C31.2607 34.8523 30.7555 34.8078 30.7555 34.8078L30.7474 34.7916C30.4887 34.7714 30.1532 34.7633 29.7531 34.7633C29.2074 34.7633 28.6779 34.8321 28.1848 34.9656C27.6876 35.0992 27.2389 35.3096 26.8549 35.5848C26.4709 35.8599 26.1516 36.2201 25.9293 36.6369C25.7029 37.0578 25.5898 37.5514 25.5898 38.1099C25.5898 38.6683 25.6868 39.1661 25.8808 39.5667C26.0708 39.9632 26.3578 40.3072 26.7135 40.5662C27.0692 40.8252 27.5057 41.0154 28.0109 41.1287C28.5122 41.242 29.078 41.3027 29.7005 41.3027C30.3553 41.3027 31.0061 41.246 31.6367 41.1408C32.1742 41.0477 32.7078 40.9425 33.2413 40.8292C33.4556 40.7807 33.69 40.7159 33.69 40.7159C33.8476 40.6755 33.8355 40.5055 33.8355 40.5055V34.6783C33.8355 33.3996 33.4919 32.4486 32.8169 31.8618V31.8578ZM30.0805 39.6557C28.783 39.7326 28.209 39.2834 28.213 39.2834C27.9624 39.0811 27.9301 39.0325 27.8452 38.903C27.7199 38.7088 27.6552 38.4296 27.6552 38.0735C27.6552 37.515 27.8412 37.1104 28.2252 36.8392C28.2211 36.8392 28.7749 36.3617 30.0764 36.3779C30.6544 36.3901 31.2325 36.4386 31.8064 36.5236V39.425C31.8064 39.425 30.998 39.599 30.0845 39.6557H30.0805Z" fill="#FFFFFE"/>
<path d="M81.9934 31.2723H81.9894C81.8802 31.2278 81.3386 31.1145 80.9223 31.0902C80.122 31.0416 79.6773 31.1752 79.2772 31.3532C78.8811 31.5313 78.4445 31.8186 78.202 32.1504V31.3735C78.202 31.2682 78.1252 31.1792 78.0161 31.1792H76.3831C76.278 31.1792 76.2012 31.2642 76.2012 31.3735V40.8831C76.2012 40.9883 76.2861 41.0773 76.3952 41.0773H78.0686C78.1737 41.0773 78.2626 40.9923 78.2626 40.8831V36.108C78.2626 35.4687 78.3313 34.8333 78.4728 34.4327C78.6102 34.0361 78.8002 33.7205 79.0306 33.4939C79.2529 33.2754 79.5237 33.1135 79.8188 33.0204C80.0977 32.9395 80.3847 32.899 80.6757 32.899C81.0112 32.899 81.375 32.984 81.375 32.984C81.4963 32.9962 81.565 32.9233 81.6094 32.81C81.7186 32.5187 82.0298 31.6446 82.0904 31.4706V31.4989C82.1228 31.4099 82.0823 31.3087 81.9975 31.2723H81.9934Z" fill="#FFFFFE"/>
<path d="M89.7414 39.3209C89.6808 39.1388 89.5029 39.2076 89.5029 39.2076C89.2281 39.3128 88.9371 39.4099 88.6258 39.4585C88.3105 39.5071 87.9629 39.5313 87.5951 39.5313C86.6856 39.5313 85.9581 39.2602 85.4407 38.722C84.9193 38.1838 84.6283 37.3178 84.6323 36.1443C84.6323 35.076 84.891 34.2747 85.3558 33.6596C85.8126 33.0526 86.5159 32.737 87.4455 32.737C88.2216 32.737 88.8158 32.826 89.4383 33.0243C89.4383 33.0243 89.5838 33.0891 89.6565 32.8948C89.8223 32.4376 89.9435 32.1098 90.1214 31.608C90.1699 31.4623 90.0486 31.4016 90.0042 31.3854C89.7616 31.2883 89.1836 31.1345 88.7471 31.0657C88.3388 31.005 87.8659 30.9727 87.3324 30.9727C86.5401 30.9727 85.8368 31.1062 85.2346 31.3773C84.6323 31.6444 84.123 32.0167 83.7188 32.478C83.3146 32.9393 83.0074 33.4897 82.8013 34.1169C82.5951 34.7401 82.4941 35.424 82.4941 36.1483C82.4941 37.7103 82.9144 38.9769 83.7471 39.9036C84.5797 40.8344 85.8328 41.3038 87.4658 41.3038C88.4318 41.3038 89.4221 41.1095 90.1335 40.8263C90.1335 40.8263 90.2709 40.7615 90.2103 40.6037L89.7455 39.325L89.7414 39.3209Z" fill="#FFFFFE"/>
<path d="M57.4567 38.2205V38.184C57.4567 36.3954 55.8763 35.7439 54.3929 35.2785L54.1988 35.2138C53.0792 34.8496 52.1131 34.5339 52.1131 33.7975V33.761C52.1131 33.1298 52.679 32.6644 53.5521 32.6644C54.5222 32.6644 55.6742 32.9881 56.4179 33.3968C56.4179 33.3968 56.6362 33.5385 56.717 33.328C56.7615 33.2147 57.1374 32.2031 57.1738 32.0898C57.2182 31.9724 57.1414 31.8834 57.0646 31.8348C56.2158 31.3169 55.0436 30.9648 53.831 30.9648H53.6047C51.5392 30.9648 50.0962 32.2152 50.0962 34.0038V34.0403C50.0962 35.926 51.6887 36.5411 53.1762 36.966L53.4147 37.0388C54.502 37.3707 55.4357 37.662 55.4357 38.4228V38.4592C55.4357 39.1593 54.8254 39.6813 53.8472 39.6813C53.4672 39.6813 52.2506 39.6732 50.941 38.8436C50.7833 38.7506 50.6904 38.6858 50.5691 38.6089C50.5287 38.5847 50.3387 38.5078 50.274 38.7101L49.8294 39.9484H49.8334C49.7647 40.1305 49.8577 40.1709 49.8819 40.2033C50.0881 40.353 50.2983 40.4623 50.5085 40.5837C51.6321 41.1786 52.6912 41.3526 53.7987 41.3526C56.0541 41.3526 57.4567 40.1507 57.4567 38.2164V38.2205Z" fill="#FFFFFE"/>
<path d="M99.3997 33.7775H99.3916C99.2299 33.1745 98.8338 32.5635 98.5751 32.2842C98.1628 31.8432 97.7627 31.5316 97.3625 31.3616C96.7845 31.1148 96.162 30.9893 95.5355 30.9893C94.7392 30.9893 94.0157 31.1229 93.4296 31.398C92.8435 31.6732 92.3504 32.0495 91.9623 32.5189C91.5743 32.9884 91.2833 33.5428 91.0973 34.1781C90.9114 34.8053 90.8184 35.4932 90.8184 36.2135C90.8184 36.9338 90.9155 37.6339 91.1095 38.2531C91.3035 38.8762 91.6147 39.4225 92.0351 39.8758C92.4555 40.333 92.9931 40.6891 93.6398 40.94C94.2825 41.1909 95.0626 41.3164 95.9559 41.3164C97.799 41.3123 98.7691 40.8996 99.1653 40.677C99.234 40.6365 99.3027 40.5677 99.2178 40.3735L98.8015 39.204C98.7368 39.03 98.563 39.0948 98.563 39.0948C98.1062 39.2647 97.4595 39.5723 95.9437 39.5682C94.9534 39.5682 94.2218 39.2728 93.7611 38.8155C93.2922 38.3461 93.0577 37.6622 93.0214 36.691H99.4078C99.4078 36.691 99.5775 36.691 99.5937 36.5292C99.6018 36.4604 99.812 35.2181 99.4037 33.7815L99.3997 33.7775ZM93.0456 35.1088C93.1345 34.5018 93.3003 33.996 93.563 33.6035C93.9551 33.0045 94.5492 32.6768 95.386 32.6768C96.2227 32.6768 96.7764 33.0045 97.1725 33.6035C97.4353 34 97.5484 34.522 97.5929 35.1088H93.0456Z" fill="#FFFFFE"/>
<path d="M74.2765 34.1403C74.0906 33.5131 73.8036 32.9628 73.4196 32.5014C73.0356 32.0401 72.5506 31.6678 71.9726 31.4008C71.3986 31.1337 70.7195 30.9961 69.9515 30.9961C69.1835 30.9961 68.5085 31.1337 67.9305 31.4008C67.3565 31.6678 66.8675 32.0401 66.4835 32.5014C66.0995 32.9628 65.8125 33.5131 65.6266 34.1403C65.4447 34.7635 65.3477 35.4434 65.3477 36.1677C65.3477 36.8921 65.4406 37.5719 65.6266 38.1951C65.8125 38.8223 66.0995 39.3727 66.4835 39.834C66.8675 40.2953 67.3565 40.6635 67.9305 40.9266C68.5085 41.1896 69.1876 41.3232 69.9515 41.3232C70.7155 41.3232 71.3945 41.1896 71.9685 40.9266C72.5425 40.6635 73.0316 40.2953 73.4156 39.834C73.7996 39.3727 74.0865 38.8223 74.2725 38.1951C74.4544 37.5719 74.5473 36.8921 74.5473 36.1677C74.5473 35.4434 74.4544 34.7635 74.2725 34.1403H74.2765ZM72.3929 36.1677C72.3929 37.2563 72.1908 38.1182 71.7907 38.7292C71.3945 39.3322 70.7923 39.6276 69.9556 39.6276C69.1189 39.6276 68.5207 39.3362 68.1286 38.7333C67.7325 38.1263 67.5344 37.2603 67.5344 36.1677C67.5344 35.0751 67.7365 34.2172 68.1286 33.6143C68.5207 33.0154 69.1148 32.7281 69.9556 32.7281C70.7963 32.7281 71.3945 33.0194 71.7907 33.6143C72.1908 34.2172 72.3929 35.0751 72.3929 36.1637V36.1677Z" fill="#FFFFFE"/>
<path d="M37.7816 27.0996H36.092C35.9829 27.0996 35.9102 27.1846 35.9102 27.2938V40.9189C35.9102 41.0241 35.987 41.1132 36.092 41.1132H37.7816C37.8867 41.1132 37.9635 41.0282 37.9635 40.9189V27.2938C37.9635 27.1886 37.8867 27.0996 37.7816 27.0996Z" fill="#FFFFFE"/>
<path d="M65.0026 31.19H62.9654C62.9735 31.1455 63.0664 30.4252 63.3009 29.7494C63.4019 29.4621 63.5879 29.2274 63.7495 29.0696C63.8991 28.9158 64.081 28.8025 64.2831 28.7378C64.5054 28.669 64.7358 28.6366 64.9662 28.6406C65.1602 28.6406 65.3461 28.6649 65.4916 28.6933C65.6897 28.7337 65.7665 28.758 65.8191 28.7742C66.0252 28.8389 66.0535 28.7742 66.0939 28.6771L66.583 27.3376C66.6315 27.1919 66.5102 27.1312 66.4658 27.1151C66.2596 27.0544 66.0495 27.0018 65.8352 26.9653C65.5482 26.9168 65.2572 26.8965 64.9702 26.8965C63.8182 26.8965 62.9088 27.2243 62.2702 27.8677C61.6356 28.5071 61.2071 29.4824 60.9888 30.7611L60.912 31.1941H59.465C59.465 31.1941 59.2871 31.186 59.2507 31.3802L59.0123 32.7075C58.9961 32.833 59.0486 32.9139 59.2184 32.9139H60.6291L59.1982 40.902C59.085 41.5454 58.9597 42.0755 58.8142 42.4762C58.6727 42.8727 58.5393 43.1681 58.3696 43.3826C58.2079 43.589 58.0543 43.7428 57.7875 43.8318C57.5693 43.9046 57.3146 43.941 57.0357 43.941C56.8821 43.941 56.676 43.9168 56.5224 43.8844C56.3688 43.8561 56.292 43.8196 56.1788 43.7711C56.1788 43.7711 56.0131 43.7063 55.9484 43.8723C55.8959 44.0098 55.5199 45.0417 55.4755 45.1712C55.431 45.2967 55.4957 45.3978 55.5725 45.4262C55.7584 45.495 55.8999 45.5354 56.1545 45.5961C56.5102 45.6811 56.8094 45.6852 57.0883 45.6852C57.6744 45.6852 58.2119 45.6042 58.6525 45.4424C59.0971 45.2805 59.4892 45.0013 59.8288 44.6168C60.2006 44.2041 60.4351 43.7751 60.6574 43.1884C60.8797 42.6057 61.0656 41.8853 61.2192 41.0436L62.6541 32.9058H64.756C64.756 32.9058 64.9339 32.9139 64.9702 32.7197L65.2087 31.3924C65.2249 31.2669 65.1723 31.186 64.9985 31.186L65.0026 31.19Z" fill="#FFFFFE"/>
</g>
<defs>
<clipPath id="clip0_366_1013">
<rect width="111" height="78" fill="white"/>
</clipPath>
</defs>
</svg>
