<svg width="121" height="29" viewBox="0 0 121 29" fill="none" xmlns="http://www.w3.org/2000/svg">
<g clip-path="url(#clip0_366_1028)">
<path d="M43.2988 10.2507C45.7988 10.2507 46.0079 12.2639 46.0079 14.3258V22.8809H49.2043V13.518C49.2043 9.63636 47.5739 7.66827 44.3585 7.66827C42.3598 7.66827 40.6902 8.57478 39.5294 10.2899L39.4668 10.3801L39.4217 10.2773C38.6897 8.51931 37.276 7.66602 35.1006 7.66602C33.1569 7.66602 31.6712 8.49364 30.8043 10.0601L30.6935 10.2665V8.00275H27.4961V22.8809H30.6935V14.9676C30.6935 11.8384 31.8203 10.2507 34.0436 10.2507C36.5431 10.2507 36.7523 12.2639 36.7523 14.3258V22.8809H39.9491V14.9676C39.9491 11.8384 41.0761 10.2507 43.2988 10.2507Z" fill="#3E5073" stroke="#3E5073" stroke-width="0.519051" stroke-miterlimit="10"/>
<path d="M59.2249 22.8943L64.4652 8.00391H61.1935L57.7482 18.9068L54.303 8.00621H50.8086L56.2228 22.8573L56.0876 23.2819C55.4114 25.2608 54.7303 25.3443 53.2604 25.3443H52.0171V27.7608H53.511C56.7705 27.7608 57.787 26.8967 59.2249 22.8943Z" fill="#3E5073" stroke="#3E5073" stroke-width="0.519051" stroke-miterlimit="10"/>
<path d="M72.8892 7.69576C75.3143 7.69576 77.3222 8.94979 77.3222 10.4834C77.3222 11.4593 76.5974 12.1841 75.4539 12.1841C74.9801 12.1841 74.5902 12.1282 74.2281 11.4872L72.9729 9.3686C72.7218 8.95028 72.5543 8.86684 72.1085 8.86684C70.1019 8.86684 68.3169 10.5677 68.3169 14.3032C68.3169 18.3457 70.6029 20.6037 73.6141 20.6037C74.8127 20.6037 76.2904 20.1019 77.3781 19.2378L77.7122 19.5164C76.6804 21.1612 75.036 23.3078 72.0534 23.3078C67.5907 23.3078 65.1953 20.0465 65.1953 15.7799C65.1953 10.5668 69.2649 7.69531 72.945 7.69531L72.8892 7.69576Z" fill="#3E5073" stroke="#3E5073" stroke-width="0.519051" stroke-miterlimit="10"/>
<path d="M88.0444 20.8782C87.0412 22.3 85.9263 23.3034 83.9191 23.3034C81.8553 23.3034 79.4023 22.0489 79.4023 19.6238C79.4023 17.8117 81.0747 16.7798 84.0007 15.3586C84.7528 14.9957 86.0351 14.4119 88.1261 13.5185V12.7657C88.1261 9.83844 87.3733 8.80658 85.5056 8.80658C83.1356 8.80658 82.8007 10.5353 82.9409 12.6832H79.7909C79.7909 10.3392 82.606 7.7207 86.1747 7.7207C88.7951 7.7207 91.4714 8.7246 91.3877 12.4601L91.2202 19.6805C91.193 21.242 91.4993 21.4927 92.2521 21.4927C92.6972 21.4927 93.0607 21.242 93.4786 20.9355L93.757 21.2141C93.0049 22.1341 91.9737 23.1654 90.6356 23.1654C89.52 23.1654 88.1561 22.2734 88.0702 20.8796L88.0444 20.8782ZM88.0444 14.494C85.9263 15.3586 84.8944 15.9158 84.4207 16.2222C83.2772 16.9191 82.8035 17.5606 82.8035 18.6478C82.8035 19.9862 83.8905 21.4079 85.6193 21.4079C86.6512 21.4079 87.3195 20.9616 87.9628 20.0975L88.0444 14.494Z" fill="#3E5073" stroke="#3E5073" stroke-width="0.519051" stroke-miterlimit="10"/>
<path d="M100.913 7.72205C102.111 7.72205 103.673 7.97313 104.649 8.39146L104.788 12.9077H104.259C103.618 10.1197 102.195 8.78181 100.523 8.78181C99.1013 8.78181 98.0694 9.45074 98.0694 10.566C98.0694 11.6527 98.9059 12.324 100.105 12.9911L101.637 13.8557C104.174 15.3612 105.68 16.3088 105.68 18.6506C105.68 21.6612 102.78 23.3061 100.048 23.3061C98.7105 23.3061 96.7584 22.9162 95.5605 22.3307V17.0602H96.09C96.6474 20.6285 98.0973 22.1341 100.133 22.1341C101.637 22.1341 102.948 21.4647 102.948 19.8758C102.948 18.7885 102.111 18.0916 100.745 17.3108L99.268 16.5026C97.2615 15.3874 95.5884 14.2168 95.5884 11.9025C95.5884 9.03109 98.4594 7.7207 100.94 7.7207L100.913 7.72205Z" fill="#3E5073" stroke="#3E5073" stroke-width="0.519051" stroke-miterlimit="10"/>
<path d="M107.271 15.8092C107.271 11.4322 110.448 7.69531 114.295 7.69531C117.641 7.69531 120.122 9.78595 120.346 13.7172H110.393V13.9399C110.393 18.4841 112.818 20.6028 115.829 20.6028C117.724 20.6028 119.174 19.9059 120.066 18.9858L120.4 19.2644C119.425 20.9093 117.473 23.3069 114.099 23.3069C109.696 23.3083 107.271 20.1583 107.271 15.8092ZM110.448 12.6029H116.832C116.721 9.92661 115.522 8.78395 113.877 8.78395C111.87 8.78395 110.753 10.2611 110.448 12.6029Z" fill="#3E5073" stroke="#3E5073" stroke-width="0.519051" stroke-miterlimit="10"/>
<path d="M6.11328 1.0166V2.41534L18.2747 8.63417V24.5441L19.7027 25.2744V7.96569L6.11328 1.0166Z" fill="#6C73F8"/>
<path d="M3.25586 2.35547V3.75421L15.4172 9.97306V25.883L16.8453 26.6133V9.30455L3.25586 2.35547Z" fill="#6C73F8"/>
<path d="M13.9898 27.9483L0.400391 20.9987V3.69043L13.9898 10.6396V27.9483Z" fill="#6C73F8"/>
</g>
<defs>
<clipPath id="clip0_366_1028">
<rect width="121" height="28" fill="white" transform="translate(0 0.5)"/>
</clipPath>
</defs>
</svg>
