<svg width="150" height="17" viewBox="0 0 150 17" fill="none" xmlns="http://www.w3.org/2000/svg">
<g clip-path="url(#clip0_366_1063)">
<path d="M49.8713 10.8628C49.7689 10.7657 49.6332 10.7116 49.4921 10.7116C49.3511 10.7116 49.2154 10.7657 49.113 10.8628C48.4527 11.4614 47.5933 11.7929 46.7021 11.7929C45.1086 11.7929 43.6809 10.7503 43.6809 8.39853C43.6809 6.0468 45.0197 4.99828 46.471 4.99828C46.8398 4.99794 47.2049 5.07231 47.5442 5.21689C47.8835 5.36148 48.1899 5.57329 48.4452 5.83956C48.7003 6.10582 48.8989 6.42102 49.029 6.76614C49.159 7.11126 49.2178 7.47916 49.2019 7.84763H45.4818C45.3246 7.84763 45.1739 7.91003 45.0628 8.02113C44.9518 8.13222 44.8893 8.28289 44.8893 8.44V8.99092H49.8831C49.9837 8.99176 50.0833 8.97229 50.1762 8.93366C50.269 8.89503 50.353 8.83805 50.4232 8.76613C50.4936 8.6942 50.5486 8.60882 50.585 8.51512C50.6214 8.42142 50.6386 8.32131 50.6354 8.22082C50.5466 5.46626 48.805 3.71875 46.4888 3.71875C44.0185 3.71875 42.1882 5.72691 42.1882 8.39853C42.1608 9.00259 42.2564 9.6059 42.469 10.172C42.6815 10.7381 43.0066 11.2552 43.4247 11.6921C43.8427 12.1289 44.345 12.4765 44.9012 12.7138C45.4574 12.951 46.0559 13.073 46.6606 13.0724C47.3759 13.08 48.0839 12.9275 48.7326 12.6262C49.3814 12.3248 49.9546 11.8822 50.4103 11.3308L49.8713 10.8628Z" fill="#004CFF"/>
<path d="M65.3502 4.56521C66.3796 4.05404 67.5121 3.78457 68.6615 3.77734C71.1318 3.77734 72.4942 5.05688 72.4942 7.40861V12.9H71.653C71.496 12.9 71.3453 12.8376 71.2341 12.7265C71.123 12.6153 71.0606 12.4646 71.0606 12.3076V11.7152C70.6764 12.1595 70.1977 12.5124 69.6597 12.7481C69.1216 12.9838 68.5378 13.0964 67.9507 13.0776C66.3276 13.0776 64.5801 12.1772 64.5801 10.2343C64.5801 8.29125 66.0314 7.27237 68.4424 7.27237H69.9529V7.8292C69.9529 7.98631 69.8905 8.13698 69.7793 8.24808C69.6683 8.35917 69.5176 8.42158 69.3605 8.42158H68.5785C67.0088 8.42158 66.0788 9.08504 66.0788 10.1987C66.0788 11.3124 67.1865 11.8811 68.2291 11.8811C69.8581 11.8811 71.108 10.8918 71.108 9.58856V7.46785C71.108 5.95729 70.2076 5.14573 68.549 5.14573C67.802 5.15494 67.063 5.30152 66.369 5.57816C66.2991 5.60791 66.2235 5.62235 66.1475 5.62051C66.0715 5.61866 65.9968 5.60059 65.9283 5.56748C65.8599 5.53438 65.7993 5.48702 65.7507 5.42858C65.702 5.37014 65.6664 5.30199 65.6464 5.22866L65.3502 4.56521Z" fill="#004CFF"/>
<path d="M30.8732 2.21408H30.0025C29.8454 2.21408 29.6947 2.15168 29.5837 2.04058C29.4725 1.92949 29.4102 1.77881 29.4102 1.62171V0.756836H30.2809C30.438 0.756836 30.5887 0.819247 30.6997 0.930339C30.8109 1.04143 30.8732 1.19211 30.8732 1.34921V2.21408Z" fill="#004CFF"/>
<path d="M112.776 2.21408H111.905C111.748 2.21408 111.597 2.15168 111.486 2.04058C111.375 1.92949 111.312 1.77881 111.312 1.62171V0.756836H112.183C112.34 0.756836 112.491 0.819247 112.602 0.930339C112.713 1.04143 112.776 1.19211 112.776 1.34921V2.21408Z" fill="#004CFF"/>
<path d="M21.1181 5.34743C20.6674 4.82036 20.1064 4.39865 19.4749 4.11205C18.8434 3.82545 18.1566 3.68096 17.4632 3.68878C16.2189 3.68878 15.0256 4.18306 14.1457 5.06291C13.2658 5.94277 12.7715 7.13611 12.7715 8.3804C12.7715 9.6247 13.2658 10.818 14.1457 11.6979C15.0256 12.5777 16.2189 13.0721 17.4632 13.0721C18.1753 13.07 18.8781 12.9095 19.5205 12.6021C20.163 12.2947 20.729 11.8482 21.1773 11.2949L20.6265 10.7736C20.5183 10.6786 20.3793 10.6263 20.2354 10.6263C20.0916 10.6263 19.9526 10.6786 19.8445 10.7736C19.2253 11.3881 18.3944 11.7421 17.5224 11.7629C17.0919 11.753 16.6677 11.6576 16.2746 11.4821C15.8813 11.3067 15.5269 11.0549 15.2319 10.7412C14.937 10.4275 14.7075 10.0583 14.5566 9.65501C14.4057 9.25175 14.3365 8.8225 14.3531 8.39225C14.3316 7.96717 14.3956 7.54209 14.5415 7.1422C14.6872 6.7423 14.9118 6.37573 15.2017 6.06419C15.4918 5.75265 15.8413 5.50248 16.2297 5.32847C16.6182 5.15449 17.0376 5.0602 17.4632 5.05124C18.3277 5.06671 19.1513 5.42212 19.7556 6.04051C19.8092 6.09037 19.8722 6.12918 19.9409 6.15468C20.0095 6.18018 20.0826 6.1919 20.1556 6.18914C20.2289 6.1864 20.3008 6.16923 20.3673 6.13865C20.4339 6.10806 20.4938 6.06464 20.5435 6.01089L21.1181 5.34743Z" fill="#004CFF"/>
<path d="M37.0116 12.8995C37.1985 12.8957 37.3803 12.8377 37.5348 12.7325C37.6894 12.6273 37.8101 12.4796 37.8823 12.3071L41.5372 3.91314H40.7554C40.5208 3.91099 40.2909 3.97853 40.0947 4.10718C39.8986 4.23584 39.745 4.41983 39.6536 4.63584L37.059 10.8913L34.4466 4.64769C34.3551 4.43168 34.2015 4.24768 34.0054 4.11902C33.8092 3.99037 33.5793 3.92283 33.3447 3.92499H32.5332L36.1585 12.319C36.2312 12.4865 36.35 12.6299 36.501 12.7328C36.652 12.8355 36.829 12.8934 37.0116 12.8995Z" fill="#004CFF"/>
<path d="M27.2747 11.3309C26.8498 11.5408 26.3858 11.6598 25.9122 11.6804C25.722 11.7096 25.5275 11.6936 25.3446 11.6337C25.1616 11.5737 24.9954 11.4716 24.8592 11.3354C24.7231 11.1993 24.6209 11.033 24.561 10.8501C24.5011 10.6672 24.4851 10.4727 24.5143 10.2824V5.22941H27.3043V4.50671C27.3043 4.34961 27.242 4.19893 27.1308 4.08784C27.0198 3.97675 26.8691 3.91434 26.712 3.91434H24.5143V1.3375C24.5143 1.18039 24.4518 1.02971 24.3408 0.91862C24.2297 0.807528 24.079 0.745117 23.9218 0.745117H23.063V10.5193C23.0566 10.8494 23.1156 11.1774 23.2366 11.4846C23.3575 11.7918 23.5378 12.0721 23.7674 12.3093C23.997 12.5466 24.2712 12.7361 24.5741 12.8671C24.8772 12.998 25.2031 13.0679 25.5332 13.0725C26.151 13.0932 26.7635 12.9523 27.3103 12.6637L27.2747 11.3309Z" fill="#004CFF"/>
<path d="M30.0036 12.9004H30.8745V4.50644C30.8745 4.34932 30.812 4.19866 30.701 4.08756C30.5898 3.97647 30.4392 3.91406 30.282 3.91406H29.4231V12.3199C29.4178 12.3975 29.4292 12.4753 29.4566 12.5481C29.4839 12.6209 29.5266 12.687 29.5815 12.742C29.6365 12.797 29.7026 12.8396 29.7755 12.867C29.8482 12.8943 29.926 12.9057 30.0036 12.9004Z" fill="#004CFF"/>
<path d="M63.3738 2.58668C62.7614 1.9505 62.0247 1.44707 61.2094 1.10772C60.3941 0.768369 59.5179 0.600332 58.6349 0.614059C57.8138 0.60319 56.9991 0.758972 56.2399 1.07198C55.4808 1.385 54.793 1.84873 54.2183 2.43514C53.6435 3.02156 53.1936 3.71847 52.8958 4.48371C52.5981 5.24897 52.4587 6.06666 52.486 6.88733C52.458 7.70031 52.5947 8.51055 52.8877 9.26939C53.1807 10.0282 53.6242 10.72 54.1913 11.3032C54.7584 11.8864 55.4375 12.3489 56.1879 12.6629C56.9383 12.9771 57.7444 13.1363 58.5579 13.131C59.4773 13.1406 60.3881 12.953 61.229 12.5811C62.07 12.2092 62.8216 11.6614 63.4331 10.9747L62.8407 10.3824C62.7326 10.2874 62.5937 10.235 62.4498 10.235C62.3059 10.235 62.1669 10.2874 62.0588 10.3824C61.132 11.2816 59.8907 11.7832 58.5993 11.7804C56.0461 11.7804 54.0736 9.63004 54.0736 6.89918C54.0736 4.16833 56.0165 2.07723 58.5993 2.07723C59.8424 2.1011 61.0366 2.56497 61.97 3.38639C62.0855 3.47517 62.2298 3.51823 62.3752 3.5073C62.5206 3.49637 62.6567 3.43223 62.7578 3.32714L63.3738 2.58668Z" fill="#004CFF"/>
<path d="M84.9954 3.71832C84.3758 3.70464 83.7633 3.85324 83.2188 4.1494C82.6742 4.44556 82.2166 4.87896 81.8914 5.40659C81.626 4.8835 81.217 4.44689 80.7123 4.14789C80.2077 3.84888 79.6283 3.69988 79.042 3.71832C78.494 3.71056 77.9531 3.84245 77.4702 4.10154C76.9871 4.36064 76.5781 4.73841 76.2816 5.19926V4.50619C76.2816 4.34907 76.2191 4.1984 76.1081 4.08731C75.9969 3.97622 75.8462 3.9138 75.6891 3.9138H74.8184V12.9002H75.6891C75.8462 12.9002 75.9969 12.8377 76.1081 12.7267C76.2191 12.6156 76.2816 12.4649 76.2816 12.3077V7.78796C76.2816 6.21816 77.2708 5.08672 78.651 5.08672C80.0312 5.08672 80.8487 6.04637 80.8487 7.63986V12.3196C80.8487 12.4768 80.9112 12.6274 81.0222 12.7386C81.1334 12.8496 81.284 12.9121 81.4412 12.9121H82.3119V7.72871C82.3119 5.89827 83.4967 5.08672 84.6814 5.08672C86.0795 5.08672 86.891 6.01674 86.891 7.66948V12.3196C86.891 12.4768 86.9535 12.6274 87.0645 12.7386C87.1756 12.8496 87.3263 12.9121 87.4834 12.9121H88.3542V7.34959C88.3245 5.11634 87.045 3.71832 84.9954 3.71832Z" fill="#004CFF"/>
<path d="M95.4972 3.71879C94.841 3.71572 94.1943 3.87667 93.616 4.18703C93.0377 4.49738 92.5461 4.9473 92.1859 5.49592V4.50666C92.1859 4.34954 92.1235 4.19888 92.0124 4.08778C91.9013 3.97669 91.7507 3.91428 91.5935 3.91428H90.7227V15.0747C90.7227 15.2317 90.7851 15.3824 90.8962 15.4935C91.0073 15.6047 91.158 15.667 91.3151 15.667H92.1859V11.3605C92.557 11.8936 93.0525 12.3282 93.6295 12.6266C94.2066 12.925 94.8477 13.078 95.4972 13.0724C97.5884 13.0724 99.7979 11.4197 99.7979 8.39857C99.7979 5.37746 97.5587 3.71879 95.4972 3.71879ZM98.2874 8.39857C98.2874 10.3712 97.0374 11.7396 95.2663 11.7396C94.841 11.7298 94.4219 11.635 94.0339 11.4607C93.6458 11.2864 93.2965 11.0363 93.0067 10.7249C92.7169 10.4135 92.4923 10.0473 92.3462 9.64773C92.2002 9.2482 92.1356 8.82347 92.1562 8.39857C92.1348 7.97319 92.1988 7.54784 92.3445 7.14761C92.4902 6.74738 92.7146 6.38043 93.0045 6.06842C93.2945 5.7564 93.644 5.50568 94.0324 5.33103C94.4209 5.15639 94.8404 5.06139 95.2663 5.05165C97.0078 5.05165 98.2874 6.47928 98.2874 8.39857Z" fill="#004CFF"/>
<path d="M111.875 12.9004H112.746V4.50644C112.746 4.34932 112.684 4.19866 112.573 4.08756C112.462 3.97647 112.311 3.91406 112.154 3.91406H111.295V12.3199C111.298 12.4729 111.36 12.6189 111.468 12.727C111.577 12.8353 111.723 12.8974 111.875 12.9004Z" fill="#004CFF"/>
<path d="M115.158 14.3815C116.38 15.2158 117.825 15.6599 119.304 15.6551C122.213 15.6551 123.866 14.0616 123.866 11.2715V3.92599H122.996C122.838 3.92599 122.688 3.98839 122.576 4.09949C122.466 4.21058 122.403 4.36125 122.403 4.51836V5.34769C121.961 4.78195 121.382 4.33779 120.721 4.05684C120.061 3.77587 119.339 3.66732 118.624 3.74135C117.911 3.81537 117.227 4.06955 116.637 4.48006C116.048 4.89057 115.573 5.44398 115.256 6.0884C114.939 6.73281 114.791 7.44715 114.825 8.16444C114.86 8.88175 115.076 9.57851 115.454 10.1895C115.831 10.8004 116.358 11.3055 116.984 11.6574C117.61 12.0094 118.314 12.1965 119.032 12.2016C119.691 12.2081 120.341 12.0559 120.928 11.7579C121.514 11.4599 122.021 11.0248 122.403 10.4895V11.3011C122.403 13.25 121.271 14.3519 119.27 14.3519C118.223 14.3513 117.198 14.0601 116.307 13.5106C116.245 13.4669 116.173 13.4373 116.097 13.4238C116.022 13.4102 115.945 13.4131 115.87 13.4322C115.796 13.4514 115.727 13.4863 115.667 13.5345C115.608 13.5828 115.56 13.6434 115.525 13.712L115.158 14.3815ZM122.392 7.96008C122.383 8.36381 122.294 8.7618 122.13 9.13062C121.965 9.49945 121.729 9.83164 121.434 10.1076C121.139 10.3836 120.792 10.5979 120.413 10.7377C120.034 10.8776 119.632 10.9402 119.228 10.922C118.835 10.9343 118.446 10.8661 118.08 10.7216C117.715 10.5771 117.384 10.3594 117.106 10.0819C116.828 9.80436 116.611 9.4729 116.466 9.10796C116.322 8.74304 116.254 8.35237 116.265 7.96008C116.256 7.5713 116.328 7.18476 116.474 6.82445C116.621 6.46415 116.838 6.13777 117.116 5.86558C117.394 5.59339 117.725 5.38119 118.088 5.24217C118.451 5.10315 118.84 5.04026 119.228 5.05742C119.627 5.03592 120.027 5.09438 120.403 5.22937C120.78 5.36436 121.125 5.57317 121.42 5.84353C121.715 6.1139 121.953 6.44038 122.119 6.80384C122.286 7.16729 122.378 7.56039 122.392 7.96008Z" fill="#004CFF"/>
<path d="M130.636 3.71785C130.051 3.69762 129.471 3.82879 128.952 4.09864C128.434 4.36849 127.993 4.76786 127.674 5.25803V4.50571C127.674 4.3486 127.612 4.19794 127.501 4.08685C127.389 3.97575 127.239 3.91334 127.081 3.91334H126.211V12.8997H127.081C127.239 12.8997 127.389 12.8373 127.501 12.7262C127.612 12.6151 127.674 12.4644 127.674 12.3073V7.74602C127.651 7.39874 127.7 7.05045 127.819 6.72335C127.938 6.39624 128.124 6.0975 128.364 5.84615C128.605 5.59481 128.896 5.39638 129.218 5.2635C129.539 5.13062 129.885 5.06622 130.233 5.0744C131.715 5.0744 132.602 6.03405 132.602 7.65716V12.3073C132.602 12.4644 132.665 12.6151 132.776 12.7262C132.887 12.8373 133.038 12.8997 133.195 12.8997H134.065V7.3195C134.095 5.14548 132.757 3.71785 130.636 3.71785Z" fill="#004CFF"/>
<path d="M148.123 8.19127L140.599 13.1909C140.44 13.3003 140.31 13.4471 140.22 13.6185C140.13 13.79 140.083 13.9808 140.084 14.1743V15.4242L149.201 9.44119C149.404 9.30135 149.571 9.11492 149.687 8.89748C149.804 8.68004 149.866 8.43789 149.871 8.19127C149.872 7.94437 149.812 7.70096 149.695 7.48353C149.578 7.26611 149.408 7.08167 149.201 6.94728L140.084 1.01758V2.20233C140.084 2.3964 140.131 2.58757 140.222 2.75903C140.313 2.9305 140.445 3.077 140.605 3.18568L148.123 8.19127Z" fill="#004CFF"/>
<path d="M143.595 8.60569C143.794 8.73332 144.026 8.80114 144.263 8.80114C144.501 8.80114 144.733 8.73332 144.933 8.60569L145.573 8.17325L140.804 4.94479C140.735 4.89748 140.654 4.86991 140.571 4.86504C140.487 4.86017 140.404 4.87818 140.329 4.91715C140.255 4.9561 140.193 5.01455 140.149 5.08621C140.105 5.15787 140.082 5.24005 140.082 5.32392V6.28357L142.551 7.93631L143.595 8.60569Z" fill="#004CFF"/>
<path d="M101.887 4.56521C102.917 4.05404 104.049 3.78457 105.199 3.77734C107.663 3.77734 109.031 5.05688 109.031 7.40861V12.9H108.19C108.033 12.9 107.882 12.8376 107.771 12.7265C107.66 12.6153 107.598 12.4646 107.598 12.3076V11.7152C107.213 12.1591 106.735 12.5118 106.197 12.7476C105.659 12.9832 105.075 13.0959 104.488 13.0776C102.859 13.0776 101.117 12.1772 101.117 10.2343C101.117 8.29125 102.569 7.27237 104.979 7.27237H106.49V7.8292C106.49 7.98631 106.428 8.13698 106.317 8.24808C106.205 8.35917 106.055 8.42158 105.898 8.42158H105.134C103.564 8.42158 102.634 9.08504 102.634 10.1987C102.634 11.3124 103.736 11.8811 104.784 11.8811C106.413 11.8811 107.657 10.8918 107.657 9.58856V7.46785C107.657 5.95729 106.757 5.14573 105.104 5.14573C104.357 5.15494 103.618 5.30152 102.924 5.57816C102.853 5.61323 102.774 5.63188 102.695 5.63274C102.615 5.63359 102.536 5.61665 102.464 5.58314C102.392 5.54963 102.328 5.5004 102.278 5.43906C102.227 5.37773 102.191 5.30584 102.172 5.22866L101.887 4.56521Z" fill="#004CFF"/>
<path d="M11.5395 12.9006H12.3807L7.1737 1.36698C7.09971 1.17245 6.9626 1.00836 6.78433 0.900965C6.60605 0.793569 6.3969 0.749076 6.19034 0.774602C5.98611 0.743458 5.77747 0.785938 5.60167 0.894455C5.42587 1.00297 5.29439 1.17045 5.23069 1.36698L0 12.9006H0.787861C1.01778 12.8956 1.24196 12.8278 1.43614 12.7045C1.63034 12.5814 1.78717 12.4074 1.88968 12.2015L2.99151 9.79058H7.13815C7.29525 9.79058 7.44593 9.72818 7.55702 9.61708C7.66812 9.50599 7.73053 9.35531 7.73053 9.19821V8.3985H3.58388L6.20812 2.58728L10.4555 12.1601C10.543 12.3767 10.6927 12.5625 10.8855 12.6943C11.0784 12.8259 11.306 12.8977 11.5395 12.9006Z" fill="#004CFF"/>
</g>
<defs>
<clipPath id="clip0_366_1063">
<rect width="149.871" height="16.14" fill="white" transform="translate(0 0.299805)"/>
</clipPath>
</defs>
</svg>
