<svg width="120" height="34" viewBox="0 0 120 34" fill="none" xmlns="http://www.w3.org/2000/svg">
<g clip-path="url(#clip0_366_1088)">
<path d="M28.4538 23.0068L28.4372 22.9537L39.0068 13.2775V8.61523H22.0496V13.2775H32.1781L32.1948 13.3222L21.7285 23.0068V27.6691H39.177V23.0068H28.4538Z" fill="#201515"/>
<path d="M49.5866 8.1709C47.6306 8.1709 46.0365 8.4659 44.8043 9.05589C43.6567 9.57007 42.6898 10.4172 42.0293 11.4875C41.3976 12.5648 41.0008 13.7636 40.8653 15.0052L46.0103 15.7282C46.1965 14.632 46.5688 13.8549 47.1271 13.3971C47.7619 12.9182 48.5441 12.6762 49.3382 12.7131C50.3823 12.7131 51.1398 12.9923 51.6108 13.5506C52.077 14.109 52.3143 14.8823 52.3143 15.9012V16.4094H47.3672C44.849 16.4094 43.0399 16.9678 41.9401 18.0844C40.8401 19.2012 40.2911 20.6752 40.293 22.5066C40.293 24.3826 40.842 25.7785 41.9401 26.6942C43.0381 27.6099 44.4192 28.065 46.0831 28.0593C48.147 28.0593 49.7346 27.3494 50.8457 25.9293C51.5019 25.0565 51.9704 24.0577 52.222 22.9952H52.4091L53.1183 27.6573H57.7805V15.8511C57.7805 13.4111 57.1374 11.521 55.8514 10.181C54.5652 8.84094 52.4772 8.1709 49.5866 8.1709ZM51.2171 22.7244C50.4772 23.3413 49.5086 23.6484 48.3026 23.6484C47.3084 23.6484 46.618 23.4744 46.231 23.1264C46.0424 22.9617 45.8922 22.7575 45.7914 22.5283C45.6906 22.2991 45.6414 22.0506 45.6476 21.8003C45.6364 21.5642 45.6737 21.3284 45.7567 21.1071C45.8397 20.8858 45.9669 20.6838 46.1304 20.5133C46.3073 20.3473 46.5161 20.219 46.744 20.1361C46.972 20.0529 47.2143 20.017 47.4566 20.0303H52.3226V20.3513C52.3326 20.8052 52.2379 21.2552 52.0463 21.6666C51.8545 22.078 51.5708 22.4399 51.2171 22.7244Z" fill="#201515"/>
<path d="M85.9691 8.61523H80.4609V27.6717H85.9691V8.61523Z" fill="#201515"/>
<path d="M118.49 8.61523C116.934 8.61523 115.708 9.16427 114.811 10.2624C114.166 11.0515 113.677 12.2175 113.342 13.7605H113.18L112.46 8.61523H107.756V27.6691H113.264V17.8978C113.264 16.6657 113.553 15.7212 114.13 15.0642C114.707 14.4073 115.771 14.0787 117.323 14.0787H119.414V8.61523H118.49Z" fill="#201515"/>
<path d="M102.295 9.2374C101.009 8.47247 99.3867 8.09093 97.4287 8.09278C94.3467 8.09278 91.9345 8.97033 90.1925 10.7254C88.4504 12.4805 87.5795 14.9001 87.5795 17.9839C87.535 19.8485 87.942 21.696 88.7658 23.3692C89.52 24.8602 90.6945 26.0978 92.144 26.9287C93.6031 27.772 95.3386 28.1944 97.3504 28.1961C99.0907 28.1961 100.544 27.9281 101.711 27.3923C102.808 26.9109 103.764 26.1563 104.486 25.2008C105.174 24.2626 105.685 23.2067 105.994 22.0851L101.248 20.7562C101.048 21.4855 100.663 22.151 100.131 22.6881C99.595 23.2241 98.697 23.4921 97.437 23.4921C95.939 23.4921 94.8222 23.0631 94.0869 22.2051C93.5538 21.5854 93.2188 20.7003 93.0708 19.553H106.067C106.119 19.017 106.147 18.5674 106.147 18.2045V17.018C106.179 15.4241 105.849 13.8437 105.184 12.3948C104.562 11.0751 103.554 9.97447 102.295 9.2374ZM97.2696 12.635C99.503 12.635 100.77 13.734 101.069 15.932H93.1685C93.294 15.1986 93.5978 14.5073 94.0536 13.9191C94.7776 13.0612 95.8496 12.6331 97.2696 12.635Z" fill="#201515"/>
<path d="M83.2747 0.934405C82.8602 0.920313 82.4473 0.98966 82.0602 1.13833C81.6731 1.287 81.3201 1.51196 81.0217 1.79983C80.7276 2.09046 80.497 2.43908 80.3447 2.82355C80.1922 3.20802 80.1214 3.61993 80.1368 4.03321C80.1218 4.44916 80.1929 4.86369 80.3453 5.25096C80.498 5.63825 80.7286 5.98995 81.0229 6.28412C81.3175 6.57829 81.6693 6.80861 82.0566 6.96074C82.4442 7.11288 82.8588 7.18355 83.2747 7.16833C83.6878 7.18395 84.1001 7.11331 84.4846 6.96094C84.869 6.80859 85.2175 6.57781 85.5081 6.28333C85.7962 5.98581 86.0211 5.63311 86.1692 5.24642C86.3176 4.85972 86.386 4.44706 86.3706 4.03321C86.3896 3.62181 86.3228 3.21096 86.174 2.82689C86.0254 2.44282 85.7983 2.09398 85.5073 1.80264C85.2161 1.5113 84.8676 1.28385 84.4836 1.13484C84.0997 0.985823 83.6888 0.918515 83.2775 0.937199L83.2747 0.934405Z" fill="#201515"/>
<path d="M71.8974 8.09277C70.0216 8.09277 68.514 8.68181 67.3749 9.85993C66.5316 10.7328 65.913 12.0356 65.5183 13.7684H65.3424L64.6223 8.62319H59.918V33.146H65.4261V23.0455H65.6272C65.7953 23.7189 66.031 24.3736 66.3307 24.9996C66.7967 26.0193 67.5609 26.874 68.5223 27.4508C69.5191 27.9947 70.6421 28.2655 71.7773 28.2354C74.0834 28.2354 75.8394 27.3373 77.0456 25.5412C78.2515 23.7452 78.8546 21.2391 78.8546 18.0231C78.8546 14.9168 78.2711 12.4852 77.104 10.7282C75.9372 8.97125 74.2017 8.09277 71.8974 8.09277ZM72.4559 21.9008C71.8137 22.8314 70.8087 23.2967 69.4407 23.2967C68.8768 23.3228 68.3145 23.2139 67.801 22.9795C67.2872 22.745 66.8369 22.3915 66.4872 21.9483C65.7742 21.053 65.4188 19.8275 65.4206 18.2715V17.9086C65.4206 16.3285 65.776 15.1187 66.4872 14.2793C67.1981 13.44 68.1826 13.0249 69.4407 13.0342C70.833 13.0342 71.8443 13.4762 72.4753 14.3603C73.1063 15.2443 73.4219 16.4774 73.4219 18.0594C73.4257 19.6953 73.1053 20.9758 72.4613 21.9008H72.4559Z" fill="#201515"/>
<path d="M19.5975 23.0059H0.541016V27.6737H19.5975V23.0059Z" fill="#FF4F00"/>
</g>
<defs>
<clipPath id="clip0_366_1088">
<rect width="119.954" height="32.42" fill="white" transform="translate(0 0.790039)"/>
</clipPath>
</defs>
</svg>
