<svg width="120" height="56" viewBox="0 0 120 56" fill="none" xmlns="http://www.w3.org/2000/svg">
<mask id="mask0_366_964" style="mask-type:luminance" maskUnits="userSpaceOnUse" x="0" y="13" width="120" height="30">
<path d="M119.143 13.5171H0.539062V42.0532H119.143V13.5171Z" fill="white"/>
</mask>
<g mask="url(#mask0_366_964)">
<path d="M70.7676 24.7729C72.6011 24.7729 74.3374 25.8954 74.7042 28.3202H66.5317C66.8759 26.1947 68.47 24.7729 70.7676 24.7729ZM74.4496 31.9125C73.8285 32.8855 72.6161 33.6337 70.9697 33.6337C68.6946 33.6337 66.9583 32.384 66.5392 30.1837H76.7922C76.8446 29.8693 76.867 29.5475 76.867 29.2257C76.867 25.798 74.4722 22.7671 70.7751 22.7671C66.9583 22.7671 64.3613 25.5811 64.3613 29.2032C64.3613 32.8705 66.9806 35.6395 70.9172 35.6395C73.3645 35.6395 75.2205 34.5393 76.2982 32.8779L74.4496 31.9125Z" fill="#006BFF"/>
<path d="M63.352 17.4536H61.2266V35.3177H63.352V17.4536Z" fill="#006BFF"/>
<path d="M88.7082 27.8031V35.317H86.5827V27.9303C86.5827 25.9247 85.4302 24.7946 83.5517 24.7946C81.591 24.7946 80.0043 25.9471 80.0043 28.8284V35.3094H77.8789V23.0733H80.0043V24.832C80.9099 23.3876 82.257 22.7515 83.9708 22.7515C86.8221 22.7665 88.7082 24.6748 88.7082 27.8031Z" fill="#006BFF"/>
<path d="M100.449 29.2034C100.449 26.7038 98.5631 24.8253 96.0929 24.8253C93.646 24.8253 91.7599 26.7112 91.7599 29.2034C91.7599 31.6955 93.646 33.5815 96.0929 33.5815C98.5631 33.5815 100.449 31.6955 100.449 29.2034ZM102.574 17.4536V35.3177H100.449V33.2148C99.4683 34.704 97.9041 35.6396 95.8237 35.6396C92.426 35.6396 89.6348 32.8257 89.6348 29.2034C89.6348 25.5811 92.426 22.7672 95.8237 22.7672C97.9041 22.7672 99.4683 23.6952 100.449 25.192V17.4611H102.574V17.4536Z" fill="#006BFF"/>
<path d="M106.415 17.4536H104.289V35.3177H106.415V17.4536Z" fill="#006BFF"/>
<path d="M57.4314 29.2033C57.4314 26.7036 55.5454 24.8252 53.0758 24.8252C50.6286 24.8252 48.7426 26.7112 48.7426 29.2033C48.7426 31.6954 50.6286 33.5814 53.0758 33.5814C55.5454 33.5814 57.4314 31.6954 57.4314 29.2033ZM59.5568 23.0814V35.3177H57.4314V33.2146C56.451 34.704 54.8869 35.6395 52.8062 35.6395C49.4086 35.6395 46.6172 32.8255 46.6172 29.2033C46.6172 25.5811 49.4086 22.7671 52.8062 22.7671C54.8869 22.7671 56.451 23.6951 57.4314 25.1919V23.0889H59.5568V23.0814Z" fill="#006BFF"/>
<path d="M43.4604 32.9681C42.3827 33.3648 41.2078 33.4771 40.0627 33.2825C38.3191 32.9906 36.7922 32.0326 35.767 30.5883C34.7416 29.1439 34.3375 27.3926 34.6294 25.6488C34.9213 23.9052 35.8793 22.3784 37.3236 21.3531C38.768 20.3278 40.5193 19.9236 42.2629 20.223C43.4081 20.4176 44.4782 20.904 45.3689 21.6375C45.7431 21.9443 46.0798 22.296 46.3791 22.6777L48.2202 21.3306C47.8085 20.7918 47.337 20.2978 46.8208 19.8787C45.6233 18.8909 44.1789 18.2323 42.6446 17.9703C40.3022 17.5737 37.9373 18.1125 35.999 19.4896C34.0606 20.8666 32.7734 22.9172 32.3767 25.2672C31.561 30.1092 34.8315 34.7119 39.6736 35.5351C40.16 35.6175 40.6615 35.6623 41.1628 35.6623C42.2256 35.6623 43.2584 35.4753 44.2462 35.1086C45.0844 34.8017 45.8777 34.3526 46.5962 33.8063L45.3689 31.868C44.8 32.3319 44.149 32.7136 43.4604 32.9681Z" fill="#006BFF"/>
<path d="M116.698 23.0812V30.0263C116.698 32.2715 115.388 33.6933 113.397 33.6933C111.406 33.6933 109.962 32.2715 109.962 30.0263V23.0812H107.807V29.8167C107.807 33.3492 110.006 35.6393 113.397 35.6393C116.33 35.6393 116.787 33.7832 116.787 33.7383V36.2379C116.787 38.7151 115.709 40.1072 113.464 40.1072C111.772 40.1072 110.38 38.8573 110.17 37.2483L108.248 37.9218C108.802 40.2867 110.912 42.053 113.464 42.053C116.945 42.053 118.853 39.7628 118.853 36.2304V23.0737H116.698V23.0812Z" fill="#006BFF"/>
<path d="M17.8636 30.2143C17.0478 30.9403 16.03 31.8459 14.1741 31.8459H13.0664C11.7267 31.8459 10.5068 31.3595 9.63123 30.4763C8.77807 29.6157 8.30656 28.4331 8.30656 27.1534V25.6342C8.30656 24.3544 8.77807 23.172 9.63123 22.3113C10.5068 21.4282 11.7267 20.9418 13.0664 20.9418H14.1741C16.03 20.9418 17.0478 21.8473 17.8636 22.5732C18.7092 23.3292 19.4426 23.9727 21.396 23.9727C21.7029 23.9727 21.9947 23.9503 22.2865 23.8979C22.2865 23.8905 22.2791 23.8829 22.2791 23.8829C22.1593 23.5911 22.0246 23.3142 21.8674 23.0373L20.5577 20.7771C19.3604 18.7041 17.1451 17.4243 14.7502 17.4243H12.1383C9.74351 17.4243 7.52825 18.7041 6.33082 20.7771L5.02112 23.0373C3.82369 25.1102 3.82369 27.6698 5.02112 29.7429L6.33082 32.0031C7.52825 34.076 9.74351 35.3559 12.1383 35.3559H14.7502C17.1451 35.3559 19.3604 34.076 20.5577 32.0031L21.8674 29.7429C22.0246 29.4659 22.1593 29.189 22.2791 28.8972C22.2791 28.8897 22.2865 28.8823 22.2865 28.8823C21.9947 28.8373 21.7029 28.8074 21.396 28.8074C19.4502 28.8148 18.7167 29.4585 17.8636 30.2143Z" fill="#006BFF"/>
<path d="M14.1737 22.3101H13.0662C11.0231 22.3101 9.68335 23.7694 9.68335 25.633V27.1447C9.68335 29.0082 11.0231 30.4676 13.0662 30.4676H14.1737C17.1449 30.4676 16.9128 27.4366 21.4032 27.4366C21.8298 27.4366 22.2565 27.4739 22.668 27.5563C22.8027 26.7855 22.8027 25.9997 22.668 25.2287C22.2565 25.3036 21.8298 25.3485 21.4032 25.3485C16.9128 25.3411 17.1449 22.3101 14.1737 22.3101Z" fill="#006BFF"/>
<path d="M25.251 28.6645C24.4802 28.0958 23.6045 27.7291 22.6691 27.557C22.6691 27.5644 22.6691 27.5719 22.6691 27.5794C22.5867 28.0209 22.467 28.4625 22.2948 28.8891C23.0806 29.0162 23.8066 29.3157 24.4278 29.7647C24.4278 29.7722 24.4203 29.7797 24.4203 29.7872C24.061 30.9472 23.5222 32.0398 22.8187 33.0352C22.1226 34.0155 21.2846 34.8837 20.3191 35.6096C18.3133 37.1138 15.9335 37.9072 13.4189 37.9072C11.8623 37.9072 10.358 37.6004 8.93602 37.0017C7.56646 36.4254 6.33161 35.5946 5.27637 34.5319C4.22114 33.4767 3.39042 32.2418 2.80668 30.8723C2.20797 29.4579 1.90113 27.9461 1.90113 26.3969C1.90113 24.8402 2.20797 23.336 2.80668 21.914C3.38295 20.5445 4.21366 19.3096 5.27637 18.2544C6.33161 17.1992 7.56646 16.3684 8.93602 15.7847C10.3505 15.186 11.8623 14.8792 13.4189 14.8792C15.926 14.8792 18.3133 15.6725 20.3191 17.1767C21.2846 17.9027 22.1226 18.7633 22.8187 19.7512C23.5222 20.7465 24.061 21.8392 24.4203 22.9992C24.4203 23.0067 24.4278 23.0142 24.4278 23.0217C23.8066 23.4782 23.0806 23.7701 22.2948 23.8973C22.467 24.3238 22.5867 24.7579 22.6691 25.2069C22.6691 25.2145 22.6691 25.2219 22.6691 25.2294C23.6045 25.0574 24.4802 24.6831 25.251 24.1219C25.9845 23.5755 25.8422 22.9618 25.7299 22.6026C24.1135 17.3414 19.2115 13.5171 13.4189 13.5171C6.30168 13.5171 0.539062 19.2872 0.539062 26.3969C0.539062 33.5142 6.30916 39.2767 13.4189 39.2767C19.2115 39.2767 24.1135 35.4525 25.7299 30.1913C25.8422 29.817 25.9845 29.2034 25.251 28.6645Z" fill="#006BFF"/>
<path d="M22.2947 23.8971C22.0028 23.9421 21.7109 23.9719 21.4041 23.9719C19.4508 23.9719 18.7174 23.3208 17.8717 22.5725C17.0559 21.8465 16.0306 20.9409 14.1821 20.9409H13.0745C11.7348 20.9409 10.515 21.4274 9.63936 22.3105C8.78618 23.1711 8.3147 24.3536 8.3147 25.6333V27.1527C8.3147 28.4323 8.78618 29.6149 9.63936 30.4755C10.515 31.3586 11.7274 31.845 13.0745 31.845H14.1821C16.0381 31.845 17.0559 30.9394 17.8717 30.2136C18.7174 29.4577 19.4508 28.8141 21.4041 28.8141C21.7109 28.8141 22.0028 28.8364 22.2947 28.8889C22.4669 28.4622 22.5865 28.0283 22.6689 27.5791C22.6689 27.5716 22.6689 27.5642 22.6689 27.5568C22.2572 27.4818 21.8306 27.4445 21.4041 27.4445C16.9137 27.4445 17.1458 30.4755 14.1745 30.4755H13.067C11.0239 30.4755 9.68422 29.016 9.68422 27.1527V25.6333C9.68422 23.7699 11.0239 22.3105 13.067 22.3105H14.1745C17.1458 22.3105 16.9137 25.3415 21.4041 25.3415C21.8306 25.3415 22.2572 25.3041 22.6689 25.2292C22.6689 25.2217 22.6689 25.2142 22.6689 25.2068C22.5865 24.7577 22.4593 24.3162 22.2947 23.8971Z" fill="#0AE8F0"/>
<path d="M22.2947 23.8971C22.0028 23.9421 21.7109 23.9719 21.4041 23.9719C19.4508 23.9719 18.7174 23.3208 17.8717 22.5725C17.0559 21.8465 16.0306 20.9409 14.1821 20.9409H13.0745C11.7348 20.9409 10.515 21.4274 9.63936 22.3105C8.78618 23.1711 8.3147 24.3536 8.3147 25.6333V27.1527C8.3147 28.4323 8.78618 29.6149 9.63936 30.4755C10.515 31.3586 11.7274 31.845 13.0745 31.845H14.1821C16.0381 31.845 17.0559 30.9394 17.8717 30.2136C18.7174 29.4577 19.4508 28.8141 21.4041 28.8141C21.7109 28.8141 22.0028 28.8364 22.2947 28.8889C22.4669 28.4622 22.5865 28.0283 22.6689 27.5791C22.6689 27.5716 22.6689 27.5642 22.6689 27.5568C22.2572 27.4818 21.8306 27.4445 21.4041 27.4445C16.9137 27.4445 17.1458 30.4755 14.1745 30.4755H13.067C11.0239 30.4755 9.68422 29.016 9.68422 27.1527V25.6333C9.68422 23.7699 11.0239 22.3105 13.067 22.3105H14.1745C17.1458 22.3105 16.9137 25.3415 21.4041 25.3415C21.8306 25.3415 22.2572 25.3041 22.6689 25.2292C22.6689 25.2217 22.6689 25.2142 22.6689 25.2068C22.5865 24.7577 22.4593 24.3162 22.2947 23.8971Z" fill="#0AE8F0"/>
</g>
</svg>
