<svg width="120" height="33" viewBox="0 0 120 33" fill="none" xmlns="http://www.w3.org/2000/svg">
<g clip-path="url(#clip0_366_1046)">
<path d="M38.5703 25.4914L40.0551 22.0431C41.6596 23.2404 43.7909 23.8631 45.8983 23.8631C47.4549 23.8631 48.4368 23.2644 48.4368 22.3543C48.4128 19.8159 39.1211 21.8036 39.0493 15.4335C39.0253 12.2005 41.8991 9.70996 45.9701 9.70996C48.3889 9.70996 50.8076 10.3087 52.5318 11.6736L51.1428 15.194C49.5623 14.1882 47.5986 13.4697 45.7306 13.4697C44.4615 13.4697 43.6233 14.0684 43.6233 14.8348C43.6472 17.3253 53.0108 15.9603 53.1066 22.0431C53.1066 25.3478 50.3047 27.6708 46.2815 27.6708C43.3359 27.6708 40.6298 26.9762 38.5703 25.4914Z" fill="black"/>
<path d="M95.5424 20.7978C94.8 22.0909 93.4111 22.977 91.8066 22.977C89.4358 22.977 87.5199 21.0612 87.5199 18.6903C87.5199 16.3195 89.4358 14.4037 91.8066 14.4037C93.4111 14.4037 94.8 15.2897 95.5424 16.583L99.6375 14.3079C98.1049 11.5779 95.1592 9.70996 91.8066 9.70996C86.8494 9.70996 82.8262 13.7332 82.8262 18.6903C82.8262 23.6475 86.8494 27.6708 91.8066 27.6708C95.1832 27.6708 98.1049 25.8268 99.6375 23.0728L95.5424 20.7978Z" fill="black"/>
<path d="M55.166 2.2627H60.2909V27.3359H55.166V2.2627Z" fill="black"/>
<path d="M101.646 2.26172V27.335H106.771V19.8154L112.854 27.335H119.416L111.68 18.4024L118.841 10.0687H112.566L106.771 16.9895V2.26172H101.646Z" fill="black"/>
<path d="M75.5203 20.8457C74.7779 22.067 73.2452 22.977 71.521 22.977C69.1502 22.977 67.2344 21.0612 67.2344 18.6903C67.2344 16.3195 69.1502 14.4037 71.521 14.4037C73.2452 14.4037 74.7779 15.3616 75.5203 16.6069V20.8457ZM75.5203 10.0692V12.1047C74.6821 10.6918 72.5986 9.70996 70.4194 9.70996C65.9173 9.70996 62.373 13.6852 62.373 18.6663C62.373 23.6476 65.9173 27.6708 70.4194 27.6708C72.5986 27.6708 74.6821 26.6888 75.5203 25.276V27.3115H80.6451V10.0692H75.5203Z" fill="black"/>
<path d="M6.88664 20.8222C6.88664 22.5704 5.47373 23.9833 3.72555 23.9833C1.97736 23.9833 0.564453 22.5704 0.564453 20.8222C0.564453 19.074 1.97736 17.6611 3.72555 17.6611H6.88664V20.8222Z" fill="#E01E5A"/>
<path d="M8.4668 20.8222C8.4668 19.074 9.87971 17.6611 11.6279 17.6611C13.3761 17.6611 14.789 19.074 14.789 20.8222V28.7249C14.789 30.4731 13.3761 31.886 11.6279 31.886C9.87971 31.886 8.4668 30.4731 8.4668 28.7249V20.8222Z" fill="#E01E5A"/>
<path d="M11.6279 8.12981C9.87971 8.12981 8.4668 6.7169 8.4668 4.96871C8.4668 3.22053 9.87971 1.80762 11.6279 1.80762C13.3761 1.80762 14.789 3.22053 14.789 4.96871V8.12981H11.6279Z" fill="#36C5F0"/>
<path d="M11.6288 9.73438C13.377 9.73438 14.7899 11.1473 14.7899 12.8954C14.7899 14.6437 13.377 16.0566 11.6288 16.0566H3.70211C1.95393 16.0566 0.541016 14.6437 0.541016 12.8954C0.541016 11.1473 1.95393 9.73438 3.70211 9.73438H11.6288Z" fill="#36C5F0"/>
<path d="M24.2969 12.8954C24.2969 11.1473 25.7098 9.73438 27.4579 9.73438C29.2061 9.73438 30.619 11.1473 30.619 12.8954C30.619 14.6437 29.2061 16.0566 27.4579 16.0566H24.2969V12.8954Z" fill="#2EB67D"/>
<path d="M22.7168 12.8954C22.7168 14.6436 21.3038 16.0565 19.5557 16.0565C17.8074 16.0565 16.3945 14.6436 16.3945 12.8954V4.96871C16.3945 3.22053 17.8074 1.80762 19.5557 1.80762C21.3038 1.80762 22.7168 3.22053 22.7168 4.96871V12.8954Z" fill="#2EB67D"/>
<path d="M19.5576 25.5625C21.3057 25.5625 22.7187 26.9754 22.7187 28.7236C22.7187 30.4719 21.3057 31.8848 19.5576 31.8848C17.8094 31.8848 16.3965 30.4719 16.3965 28.7236V25.5625H19.5576Z" fill="#ECB22E"/>
<path d="M19.5576 23.9824C17.8094 23.9824 16.3965 22.5695 16.3965 20.8213C16.3965 19.0731 17.8094 17.6602 19.5576 17.6602H27.4843C29.2325 17.6602 30.6454 19.0731 30.6454 20.8213C30.6454 22.5695 29.2325 23.9824 27.4843 23.9824H19.5576Z" fill="#ECB22E"/>
</g>
<defs>
<clipPath id="clip0_366_1046">
<rect width="119.957" height="31.34" fill="white" transform="translate(0 0.830078)"/>
</clipPath>
</defs>
</svg>
