<svg width="100" height="35" viewBox="0 0 100 35" fill="none" xmlns="http://www.w3.org/2000/svg">
<g clip-path="url(#clip0_366_952)">
<path d="M29.2063 7.45251L32.4345 2.85768L28.4078 6.5162C25.4175 3.2218 21.1359 1.14111 16.3787 1.14111C7.33982 1.14111 0 8.63156 0 17.856C0 27.0976 7.33982 34.5707 16.3787 34.5707C25.4345 34.5707 32.7573 27.0802 32.7573 17.856C32.7743 13.9199 31.4321 10.3134 29.2063 7.45251ZM27.7791 23.387C27.7791 26.7682 25.0947 29.4904 21.7985 29.4904H10.9757C7.66267 29.4904 4.99516 26.7508 4.99516 23.387V12.3421C4.99516 8.96096 7.6796 6.23878 10.9757 6.23878H21.7985C23.6335 6.23878 25.2646 7.07105 26.3519 8.38881L16.3277 17.5265L9.51456 12.8103L14.4418 22.4855C14.4757 22.5374 14.5098 22.5895 14.5607 22.6415C14.5777 22.6761 14.5947 22.6935 14.6117 22.7282C14.6627 22.7976 14.6967 22.8669 14.7647 22.9189C14.8155 22.971 14.8665 23.0055 14.9175 23.0576C15.5461 23.6298 16.3787 23.8205 17.1601 23.6298H17.1772C17.3131 23.5951 17.4491 23.5431 17.585 23.4737C17.602 23.4565 17.6189 23.4565 17.6529 23.4391C17.7718 23.387 17.8738 23.3177 17.9927 23.2309C18.0267 23.2137 18.0607 23.1789 18.0947 23.1616C18.1457 23.127 18.2136 23.0923 18.2646 23.0403C18.2985 23.0055 18.3325 22.9536 18.3665 22.9189C18.3835 22.9015 18.4005 22.8842 18.4175 22.8669L18.4685 22.7976C18.5364 22.7109 18.6044 22.6241 18.6554 22.5374L27.3545 10.088C27.6262 10.7816 27.7791 11.5444 27.7791 12.3421V23.387Z" fill="#0070E0"/>
<path d="M54.232 29.8526C46.7562 29.8526 41.7441 25.015 41.7441 17.8366C41.7441 10.7624 46.8751 5.8208 54.232 5.8208C59.0911 5.8208 61.5888 7.71076 62.2344 8.28294L60.7392 12.2189C59.7708 11.4039 57.4261 9.98214 54.5548 9.98214C49.9504 9.98214 46.8581 13.1031 46.8581 17.75C46.8581 22.2928 50.0184 25.4832 54.5548 25.4832C57.8168 25.4832 59.9237 24.1655 61.0281 23.1945L62.6421 26.905C60.5864 28.8297 57.749 29.8526 54.232 29.8526Z" fill="#0070E0"/>
<path d="M69.9177 6.15186H64.9395V29.4381H69.9177V6.15186Z" fill="#0070E0"/>
<path d="M73.6701 29.4211V13.0011H78.6483V29.4384H73.6701V29.4211ZM76.1677 10.3135C74.4177 10.3135 73.2793 9.32512 73.2793 7.78197C73.2793 6.27348 74.4347 5.25049 76.1677 5.25049C77.8834 5.25049 79.0561 6.27348 79.0561 7.78197C79.0392 9.3078 77.9179 10.3135 76.1677 10.3135Z" fill="#0070E0"/>
<path d="M90.6416 29.82C85.0347 29.82 81.2637 26.3868 81.2637 21.2717C81.2637 16.1395 85.0347 12.689 90.6416 12.689C96.2315 12.689 99.9866 16.1395 99.9866 21.2717C99.9697 26.3868 96.2146 29.82 90.6416 29.82ZM90.6416 16.3648C88.0592 16.3648 86.3262 18.2895 86.3262 21.1678C86.3262 24.0461 88.0592 25.9707 90.6416 25.9707C93.2247 25.9707 94.9577 24.0461 94.9577 21.1678C94.9577 18.2895 93.2247 16.3648 90.6416 16.3648Z" fill="#0070E0"/>
</g>
<defs>
<clipPath id="clip0_366_952">
<rect width="99.9871" height="34.44" fill="white" transform="translate(0 0.279785)"/>
</clipPath>
</defs>
</svg>
