<svg width="117" height="32" viewBox="0 0 117 32" fill="none" xmlns="http://www.w3.org/2000/svg">
<path d="M44.081 7.12921C42.8474 7.44607 41.1444 8.77399 40.0436 11.507H40L40.1122 7.0625H44.1267V7.10836L44.081 7.12921ZM44.4175 23.9481V23.9022C45.2483 23.3623 45.6512 22.5514 45.6512 21.4007V7.0625H48.7021V21.4048C48.7021 22.5514 49.1071 23.3623 49.9357 23.9064V23.9481H44.4175ZM54.2203 7.0625L54.3553 11.4986H54.3096C53.211 8.77399 51.483 7.44607 50.2722 7.12087L50.2286 7.10002V7.0625H54.2203Z" fill="#171923"/>
<path d="M59.5363 12.1866C59.292 12.7949 59.4038 13.7669 59.9171 14.904L62.9348 21.8563L61.8834 24.1849H61.1466L57.1684 15.6523C56.6249 14.4532 55.9968 13.2949 55.2891 12.1866V12.1406H59.5363V12.1866ZM66.5114 12.1866C66.2217 12.7949 66.3334 13.7669 66.7805 14.9186L69.5292 21.7811L68.4653 24.1849H67.7264L64.1643 15.6753C63.6837 14.464 63.1006 13.2968 62.4215 12.1866V12.1406H66.5114V12.1866ZM73.9627 12.1406V12.1866C73.3417 12.9997 72.667 14.2414 72.0419 15.7401L71.303 17.4792L71.2595 17.4562L71.5493 15.7401C71.7956 14.2058 71.5493 12.9642 70.8787 12.1866V12.1406H73.9627Z" fill="#171923"/>
<path d="M77.6252 10.2149C77.3863 10.2155 77.1497 10.1685 76.9292 10.0768C76.7086 9.98506 76.5086 9.85036 76.3408 9.68057C76.1729 9.51077 76.0406 9.30929 75.9515 9.08787C75.8625 8.86645 75.8185 8.62953 75.8221 8.39094C75.8221 7.91328 76.0121 7.45518 76.3502 7.11742C76.6884 6.77966 77.147 6.5899 77.6252 6.5899C78.1034 6.5899 78.5621 6.77966 78.9002 7.11742C79.2384 7.45518 79.4284 7.91328 79.4284 8.39094C79.43 8.629 79.3847 8.86506 79.2949 9.0856C79.2052 9.30614 79.0728 9.50685 78.9053 9.67625C78.7378 9.84565 78.5386 9.98042 78.3189 10.0728C78.0993 10.1653 77.8636 10.2135 77.6252 10.2149ZM75.845 23.9478V23.902C76.3167 23.4517 76.565 22.7555 76.565 21.8174V15.4388C76.565 14.4257 76.1831 13.6815 75.5967 13.3667V13.3167L79.3825 11.8992H79.4054V21.8049C79.4054 22.7513 79.6531 23.4462 80.1484 23.8895V23.9478H75.845Z" fill="#171923"/>
<path d="M83.4279 23.9492V23.9034C83.8958 23.4533 84.139 22.7573 84.139 21.8196V15.4432C84.139 14.4305 83.7618 13.6866 83.1826 13.3719V13.3219L86.9217 11.905H86.9444V21.8071C86.9444 22.7531 87.1897 23.4477 87.6802 23.8909V23.9492H83.4279ZM90.9514 23.9492V23.9034C91.4193 23.4533 91.6646 22.7573 91.6646 21.8196V16.3434C91.6646 14.318 90.7968 13.0344 88.9479 13.0344C88.7381 13.0367 88.5322 13.0911 88.3481 13.1927V13.1698C88.7186 12.7765 89.1639 12.4629 89.6574 12.2481C90.1508 12.0332 90.6821 11.9215 91.2194 11.9195C93.2002 11.9195 94.4906 13.1344 94.4906 15.9475V21.8217C94.4906 22.7677 94.7132 23.4637 95.2037 23.9055V23.9492H90.9514Z" fill="#171923"/>
<path d="M98.1302 23.9483V23.9023C98.5897 23.4499 98.8317 22.7505 98.8317 21.8082V9.54108C98.8317 8.52336 98.4596 7.77787 97.8882 7.44701V7.40094L101.577 6H101.599V21.8082C101.599 22.7589 101.841 23.4569 102.323 23.9023V23.9483H98.1302Z" fill="#171923"/>
<path d="M109.735 23.9258L105.445 15.631C104.863 14.4504 104.211 13.3071 103.49 12.2076V12.1616H107.958V12.2076C107.689 12.8165 107.824 13.7665 108.36 14.8965L111.688 21.9484L110.773 23.9363L109.735 23.9258ZM113.51 17.485L113.465 17.462L113.756 15.744C114.023 14.2081 113.779 12.9651 113.109 12.1867V12.1406H116.212V12.2076C115.564 13.0216 114.894 14.2646 114.267 15.7335L113.51 17.485ZM105.029 29.7347V27.3618H105.923C107.464 27.3618 108.804 26.9098 109.586 26.2527L109.609 26.2757C108.55 28.3202 107.367 29.7347 105.021 29.7347H105.029Z" fill="#171923"/>
<path d="M15.6412 8.74004C16.2213 8.74004 16.6916 8.26424 16.6916 7.67731C16.6916 7.09038 16.2213 6.61458 15.6412 6.61458C15.0611 6.61458 14.5908 7.09038 14.5908 7.67731C14.5908 8.26424 15.0611 8.74004 15.6412 8.74004Z" fill="#171923"/>
<path d="M15.6412 26.4524C16.2213 26.4524 16.6916 25.9766 16.6916 25.3897C16.6916 24.8027 16.2213 24.3269 15.6412 24.3269C15.0611 24.3269 14.5908 24.8027 14.5908 25.3897C14.5908 25.9766 15.0611 26.4524 15.6412 26.4524Z" fill="#171923"/>
<path d="M24.3946 17.4783C24.9747 17.4783 25.445 17.0025 25.445 16.4156C25.445 15.8287 24.9747 15.3529 24.3946 15.3529C23.8145 15.3529 23.3442 15.8287 23.3442 16.4156C23.3442 17.0025 23.8145 17.4783 24.3946 17.4783Z" fill="#171923"/>
<path d="M6.88828 17.4783C7.46839 17.4783 7.93867 17.0025 7.93867 16.4156C7.93867 15.8287 7.46839 15.3529 6.88828 15.3529C6.30817 15.3529 5.83789 15.8287 5.83789 16.4156C5.83789 17.0025 6.30817 17.4783 6.88828 17.4783Z" fill="#171923"/>
<path d="M23.7037 20.8937C24.2838 20.8937 24.7541 20.4179 24.7541 19.831C24.7541 19.244 24.2838 18.7682 23.7037 18.7682C23.1236 18.7682 22.6533 19.244 22.6533 19.831C22.6533 20.4179 23.1236 20.8937 23.7037 20.8937Z" fill="#171923"/>
<path d="M23.8053 14.0473C24.3854 14.0473 24.8557 13.5715 24.8557 12.9846C24.8557 12.3977 24.3854 11.9219 23.8053 11.9219C23.2252 11.9219 22.7549 12.3977 22.7549 12.9846C22.7549 13.5715 23.2252 14.0473 23.8053 14.0473Z" fill="#171923"/>
<path d="M21.9381 11.214C22.5182 11.214 22.9885 10.7382 22.9885 10.1513C22.9885 9.56435 22.5182 9.08855 21.9381 9.08855C21.358 9.08855 20.8877 9.56435 20.8877 10.1513C20.8877 10.7382 21.358 11.214 21.9381 11.214Z" fill="#171923"/>
<path d="M19.0201 9.32468C19.6002 9.32468 20.0705 8.84888 20.0705 8.26195C20.0705 7.67502 19.6002 7.19922 19.0201 7.19922C18.44 7.19922 17.9697 7.67502 17.9697 8.26195C17.9697 8.84888 18.44 9.32468 19.0201 9.32468Z" fill="#171923"/>
<path d="M21.9381 23.7311C22.5182 23.7311 22.9885 23.2553 22.9885 22.6683C22.9885 22.0814 22.5182 21.6056 21.9381 21.6056C21.358 21.6056 20.8877 22.0814 20.8877 22.6683C20.8877 23.2553 21.358 23.7311 21.9381 23.7311Z" fill="#171923"/>
<path d="M19.1368 25.6204C19.7169 25.6204 20.1872 25.1446 20.1872 24.5576C20.1872 23.9707 19.7169 23.4949 19.1368 23.4949C18.5567 23.4949 18.0864 23.9707 18.0864 24.5576C18.0864 25.1446 18.5567 25.6204 19.1368 25.6204Z" fill="#171923"/>
<path d="M12.2511 25.6204C12.8312 25.6204 13.3015 25.1446 13.3015 24.5576C13.3015 23.9707 12.8312 23.4949 12.2511 23.4949C11.671 23.4949 11.2007 23.9707 11.2007 24.5576C11.2007 25.1446 11.671 25.6204 12.2511 25.6204Z" fill="#171923"/>
<path d="M9.4498 23.7311C10.0299 23.7311 10.5002 23.2553 10.5002 22.6683C10.5002 22.0814 10.0299 21.6056 9.4498 21.6056C8.86969 21.6056 8.39941 22.0814 8.39941 22.6683C8.39941 23.2553 8.86969 23.7311 9.4498 23.7311Z" fill="#171923"/>
<path d="M7.46592 20.8976C8.04603 20.8976 8.51631 20.4218 8.51631 19.8349C8.51631 19.2479 8.04603 18.7721 7.46592 18.7721C6.8858 18.7721 6.41553 19.2479 6.41553 19.8349C6.41553 20.4218 6.8858 20.8976 7.46592 20.8976Z" fill="#171923"/>
<path d="M9.3331 11.214C9.91322 11.214 10.3835 10.7382 10.3835 10.1513C10.3835 9.56435 9.91322 9.08855 9.3331 9.08855C8.75299 9.08855 8.28271 9.56435 8.28271 10.1513C8.28271 10.7382 8.75299 11.214 9.3331 11.214Z" fill="#171923"/>
<path d="M12.2511 9.32468C12.8312 9.32468 13.3015 8.84888 13.3015 8.26195C13.3015 7.67502 12.8312 7.19922 12.2511 7.19922C11.671 7.19922 11.2007 7.67502 11.2007 8.26195C11.2007 8.84888 11.671 9.32468 12.2511 9.32468Z" fill="#171923"/>
<path d="M13.8431 5.75722C14.1976 5.75722 14.485 5.46645 14.485 5.10777C14.485 4.7491 14.1976 4.45833 13.8431 4.45833C13.4886 4.45833 13.2012 4.7491 13.2012 5.10777C13.2012 5.46645 13.4886 5.75722 13.8431 5.75722Z" fill="#171923"/>
<path d="M18.1273 6.00083C18.4818 6.00083 18.7692 5.71006 18.7692 5.35138C18.7692 4.9927 18.4818 4.70193 18.1273 4.70193C17.7727 4.70193 17.4854 4.9927 17.4854 5.35138C17.4854 5.71006 17.7727 6.00083 18.1273 6.00083Z" fill="#171923"/>
<path d="M22.2122 7.53598C22.5667 7.53598 22.8541 7.24522 22.8541 6.88654C22.8541 6.52786 22.5667 6.23709 22.2122 6.23709C21.8577 6.23709 21.5703 6.52786 21.5703 6.88654C21.5703 7.24522 21.8577 7.53598 22.2122 7.53598Z" fill="#171923"/>
<path d="M25.3631 10.8419C25.7176 10.8419 26.005 10.5511 26.005 10.1924C26.005 9.83374 25.7176 9.54297 25.3631 9.54297C25.0086 9.54297 24.7212 9.83374 24.7212 10.1924C24.7212 10.5511 25.0086 10.8419 25.3631 10.8419Z" fill="#171923"/>
<path d="M26.8807 14.739C27.2352 14.739 27.5226 14.4482 27.5226 14.0896C27.5226 13.7309 27.2352 13.4401 26.8807 13.4401C26.5262 13.4401 26.2388 13.7309 26.2388 14.0896C26.2388 14.4482 26.5262 14.739 26.8807 14.739Z" fill="#171923"/>
<path d="M26.9974 19.1075C27.3519 19.1075 27.6393 18.8167 27.6393 18.458C27.6393 18.0994 27.3519 17.8086 26.9974 17.8086C26.6429 17.8086 26.3555 18.0994 26.3555 18.458C26.3555 18.8167 26.6429 19.1075 26.9974 19.1075Z" fill="#171923"/>
<path d="M25.1302 23.1218C25.4847 23.1218 25.7721 22.831 25.7721 22.4724C25.7721 22.1137 25.4847 21.8229 25.1302 21.8229C24.7757 21.8229 24.4883 22.1137 24.4883 22.4724C24.4883 22.831 24.7757 23.1218 25.1302 23.1218Z" fill="#171923"/>
<path d="M21.9788 26.1921C22.3333 26.1921 22.6207 25.9014 22.6207 25.5427C22.6207 25.184 22.3333 24.8932 21.9788 24.8932C21.6243 24.8932 21.3369 25.184 21.3369 25.5427C21.3369 25.9014 21.6243 26.1921 21.9788 26.1921Z" fill="#171923"/>
<path d="M18.0106 27.9643C18.3651 27.9643 18.6525 27.6735 18.6525 27.3148C18.6525 26.9561 18.3651 26.6654 18.0106 26.6654C17.656 26.6654 17.3687 26.9561 17.3687 27.3148C17.3687 27.6735 17.656 27.9643 18.0106 27.9643Z" fill="#171923"/>
<path d="M13.5755 27.9643C13.93 27.9643 14.2174 27.6735 14.2174 27.3148C14.2174 26.9561 13.93 26.6654 13.5755 26.6654C13.221 26.6654 12.9336 26.9561 12.9336 27.3148C12.9336 27.6735 13.221 27.9643 13.5755 27.9643Z" fill="#171923"/>
<path d="M9.37384 26.0749C9.72835 26.0749 10.0157 25.7842 10.0157 25.4255C10.0157 25.0668 9.72835 24.776 9.37384 24.776C9.01932 24.776 8.73193 25.0668 8.73193 25.4255C8.73193 25.7842 9.01932 26.0749 9.37384 26.0749Z" fill="#171923"/>
<path d="M6.57306 23.1218C6.92757 23.1218 7.21496 22.831 7.21496 22.4724C7.21496 22.1137 6.92757 21.8229 6.57306 21.8229C6.21854 21.8229 5.93115 22.1137 5.93115 22.4724C5.93115 22.831 6.21854 23.1218 6.57306 23.1218Z" fill="#171923"/>
<path d="M4.82257 18.9903C5.17708 18.9903 5.46447 18.6995 5.46447 18.3409C5.46447 17.9822 5.17708 17.6914 4.82257 17.6914C4.46805 17.6914 4.18066 17.9822 4.18066 18.3409C4.18066 18.6995 4.46805 18.9903 4.82257 18.9903Z" fill="#171923"/>
<path d="M4.93927 14.6218C5.29378 14.6218 5.58117 14.331 5.58117 13.9724C5.58117 13.6137 5.29378 13.3229 4.93927 13.3229C4.58475 13.3229 4.29736 13.6137 4.29736 13.9724C4.29736 14.331 4.58475 14.6218 4.93927 14.6218Z" fill="#171923"/>
<path d="M6.45636 10.4877C6.81087 10.4877 7.09826 10.1969 7.09826 9.83824C7.09826 9.47956 6.81087 9.1888 6.45636 9.1888C6.10184 9.1888 5.81445 9.47956 5.81445 9.83824C5.81445 10.1969 6.10184 10.4877 6.45636 10.4877Z" fill="#171923"/>
<path d="M9.60773 7.53598C9.96224 7.53598 10.2496 7.24522 10.2496 6.88654C10.2496 6.52786 9.96224 6.23709 9.60773 6.23709C9.25321 6.23709 8.96582 6.52786 8.96582 6.88654C8.96582 7.24522 9.25321 7.53598 9.60773 7.53598Z" fill="#171923"/>
<path d="M6.49492 6.41559C6.78498 6.41559 7.02012 6.17769 7.02012 5.88422C7.02012 5.59076 6.78498 5.35286 6.49492 5.35286C6.20486 5.35286 5.96973 5.59076 5.96973 5.88422C5.96973 6.17769 6.20486 6.41559 6.49492 6.41559Z" fill="#171923"/>
<path d="M11.0862 3.71898C11.3763 3.71898 11.6114 3.48108 11.6114 3.18762C11.6114 2.89415 11.3763 2.65625 11.0862 2.65625C10.7962 2.65625 10.561 2.89415 10.561 3.18762C10.561 3.48108 10.7962 3.71898 11.0862 3.71898Z" fill="#171923"/>
<path d="M16.5716 3.01065C16.8616 3.01065 17.0968 2.77275 17.0968 2.47929C17.0968 2.18582 16.8616 1.94792 16.5716 1.94792C16.2815 1.94792 16.0464 2.18582 16.0464 2.47929C16.0464 2.77275 16.2815 3.01065 16.5716 3.01065Z" fill="#171923"/>
<path d="M21.5901 4.19164C21.8802 4.19164 22.1153 3.95374 22.1153 3.66027C22.1153 3.36681 21.8802 3.12891 21.5901 3.12891C21.3001 3.12891 21.0649 3.36681 21.0649 3.66027C21.0649 3.95374 21.3001 4.19164 21.5901 4.19164Z" fill="#171923"/>
<path d="M25.9085 7.14215C26.1986 7.14215 26.4337 6.90425 26.4337 6.61079C26.4337 6.31732 26.1986 6.07942 25.9085 6.07942C25.6184 6.07942 25.3833 6.31732 25.3833 6.61079C25.3833 6.90425 25.6184 7.14215 25.9085 7.14215Z" fill="#171923"/>
<path d="M28.9432 11.7476C29.2332 11.7476 29.4684 11.5097 29.4684 11.2163C29.4684 10.9228 29.2332 10.6849 28.9432 10.6849C28.6531 10.6849 28.418 10.9228 28.418 11.2163C28.418 11.5097 28.6531 11.7476 28.9432 11.7476Z" fill="#171923"/>
<path d="M29.6434 16.9429C29.9334 16.9429 30.1686 16.705 30.1686 16.4116C30.1686 16.1181 29.9334 15.8802 29.6434 15.8802C29.3533 15.8802 29.1182 16.1181 29.1182 16.4116C29.1182 16.705 29.3533 16.9429 29.6434 16.9429Z" fill="#171923"/>
<path d="M28.4759 22.2569C28.7659 22.2569 29.0011 22.019 29.0011 21.7255C29.0011 21.432 28.7659 21.1941 28.4759 21.1941C28.1858 21.1941 27.9507 21.432 27.9507 21.7255C27.9507 22.019 28.1858 22.2569 28.4759 22.2569Z" fill="#171923"/>
<path d="M25.2083 26.5082C25.4984 26.5082 25.7335 26.2703 25.7335 25.9768C25.7335 25.6833 25.4984 25.4454 25.2083 25.4454C24.9182 25.4454 24.6831 25.6833 24.6831 25.9768C24.6831 26.2703 24.9182 26.5082 25.2083 26.5082Z" fill="#171923"/>
<path d="M20.6565 29.3427C20.9466 29.3427 21.1817 29.1048 21.1817 28.8113C21.1817 28.5179 20.9466 28.28 20.6565 28.28C20.3665 28.28 20.1313 28.5179 20.1313 28.8113C20.1313 29.1048 20.3665 29.3427 20.6565 29.3427Z" fill="#171923"/>
<path d="M15.4046 30.2867C15.6946 30.2867 15.9298 30.0488 15.9298 29.7553C15.9298 29.4619 15.6946 29.224 15.4046 29.224C15.1145 29.224 14.8794 29.4619 14.8794 29.7553C14.8794 30.0488 15.1145 30.2867 15.4046 30.2867Z" fill="#171923"/>
<path d="M10.1526 29.1057C10.4427 29.1057 10.6778 28.8678 10.6778 28.5743C10.6778 28.2809 10.4427 28.043 10.1526 28.043C9.86258 28.043 9.62744 28.2809 9.62744 28.5743C9.62744 28.8678 9.86258 29.1057 10.1526 29.1057Z" fill="#171923"/>
<path d="M5.83428 25.9182C6.12433 25.9182 6.35947 25.6803 6.35947 25.3868C6.35947 25.0934 6.12433 24.8555 5.83428 24.8555C5.54422 24.8555 5.30908 25.0934 5.30908 25.3868C5.30908 25.6803 5.54422 25.9182 5.83428 25.9182Z" fill="#171923"/>
<path d="M3.26689 21.3127C3.55695 21.3127 3.79209 21.0748 3.79209 20.7814C3.79209 20.4879 3.55695 20.25 3.26689 20.25C2.97684 20.25 2.7417 20.4879 2.7417 20.7814C2.7417 21.0748 2.97684 21.3127 3.26689 21.3127Z" fill="#171923"/>
<path d="M2.2166 15.9989C2.50666 15.9989 2.7418 15.761 2.7418 15.4676C2.7418 15.1741 2.50666 14.9362 2.2166 14.9362C1.92654 14.9362 1.69141 15.1741 1.69141 15.4676C1.69141 15.761 1.92654 15.9989 2.2166 15.9989Z" fill="#171923"/>
<path d="M3.50029 10.9208C3.79035 10.9208 4.02549 10.6829 4.02549 10.3894C4.02549 10.096 3.79035 9.85808 3.50029 9.85808C3.21024 9.85808 2.9751 10.096 2.9751 10.3894C2.9751 10.6829 3.21024 10.9208 3.50029 10.9208Z" fill="#171923"/>
<path d="M3.03226 7.46891C3.22563 7.46891 3.38239 7.31031 3.38239 7.11467C3.38239 6.91902 3.22563 6.76042 3.03226 6.76042C2.83889 6.76042 2.68213 6.91902 2.68213 7.11467C2.68213 7.31031 2.83889 7.46891 3.03226 7.46891Z" fill="#171923"/>
<path d="M7.35257 3.07058C7.54594 3.07058 7.7027 2.91198 7.7027 2.71633C7.7027 2.52069 7.54594 2.36209 7.35257 2.36209C7.1592 2.36209 7.00244 2.52069 7.00244 2.71633C7.00244 2.91198 7.1592 3.07058 7.35257 3.07058Z" fill="#171923"/>
<path d="M13.0713 0.708487C13.2647 0.708487 13.4215 0.549887 13.4215 0.354243C13.4215 0.1586 13.2647 0 13.0713 0C12.8779 0 12.7212 0.1586 12.7212 0.354243C12.7212 0.549887 12.8779 0.708487 13.0713 0.708487Z" fill="#171923"/>
<path d="M19.4903 0.944281C19.6836 0.944281 19.8404 0.785681 19.8404 0.590038C19.8404 0.394394 19.6836 0.235794 19.4903 0.235794C19.2969 0.235794 19.1401 0.394394 19.1401 0.590038C19.1401 0.785681 19.2969 0.944281 19.4903 0.944281Z" fill="#171923"/>
<path d="M24.8594 3.54313C25.0528 3.54313 25.2095 3.38453 25.2095 3.18888C25.2095 2.99324 25.0528 2.83464 24.8594 2.83464C24.666 2.83464 24.5093 2.99324 24.5093 3.18888C24.5093 3.38453 24.666 3.54313 24.8594 3.54313Z" fill="#171923"/>
<path d="M29.2945 7.67594C29.4878 7.67594 29.6446 7.51734 29.6446 7.3217C29.6446 7.12605 29.4878 6.96745 29.2945 6.96745C29.1011 6.96745 28.9443 7.12605 28.9443 7.3217C28.9443 7.51734 29.1011 7.67594 29.2945 7.67594Z" fill="#171923"/>
<path d="M31.6285 13.5796C31.8218 13.5796 31.9786 13.421 31.9786 13.2253C31.9786 13.0297 31.8218 12.8711 31.6285 12.8711C31.4351 12.8711 31.2783 13.0297 31.2783 13.2253C31.2783 13.421 31.4351 13.5796 31.6285 13.5796Z" fill="#171923"/>
<path d="M31.5118 19.7202C31.7051 19.7202 31.8619 19.5616 31.8619 19.366C31.8619 19.1703 31.7051 19.0117 31.5118 19.0117C31.3184 19.0117 31.1616 19.1703 31.1616 19.366C31.1616 19.5616 31.3184 19.7202 31.5118 19.7202Z" fill="#171923"/>
<path d="M29.1773 25.5054C29.3706 25.5054 29.5274 25.3468 29.5274 25.1511C29.5274 24.9555 29.3706 24.7969 29.1773 24.7969C28.9839 24.7969 28.8271 24.9555 28.8271 25.1511C28.8271 25.3468 28.9839 25.5054 29.1773 25.5054Z" fill="#171923"/>
<path d="M24.5088 29.6382C24.7022 29.6382 24.859 29.4796 24.859 29.2839C24.859 29.0883 24.7022 28.9297 24.5088 28.9297C24.3154 28.9297 24.1587 29.0883 24.1587 29.2839C24.1587 29.4796 24.3154 29.6382 24.5088 29.6382Z" fill="#171923"/>
<path d="M18.7906 32.0002C18.9839 32.0002 19.1407 31.8416 19.1407 31.6459C19.1407 31.4503 18.9839 31.2917 18.7906 31.2917C18.5972 31.2917 18.4404 31.4503 18.4404 31.6459C18.4404 31.8416 18.5972 32.0002 18.7906 32.0002Z" fill="#171923"/>
<path d="M12.7212 31.8818C12.9146 31.8818 13.0714 31.7232 13.0714 31.5275C13.0714 31.3319 12.9146 31.1733 12.7212 31.1733C12.5279 31.1733 12.3711 31.3319 12.3711 31.5275C12.3711 31.7232 12.5279 31.8818 12.7212 31.8818Z" fill="#171923"/>
<path d="M6.76908 29.6382C6.96245 29.6382 7.11921 29.4796 7.11921 29.2839C7.11921 29.0883 6.96245 28.9297 6.76908 28.9297C6.5757 28.9297 6.41895 29.0883 6.41895 29.2839C6.41895 29.4796 6.5757 29.6382 6.76908 29.6382Z" fill="#171923"/>
<path d="M2.5679 25.0327C2.76127 25.0327 2.91803 24.8741 2.91803 24.6785C2.91803 24.4828 2.76127 24.3242 2.5679 24.3242C2.37453 24.3242 2.21777 24.4828 2.21777 24.6785C2.21777 24.8741 2.37453 25.0327 2.5679 25.0327Z" fill="#171923"/>
<path d="M0.466829 19.2463C0.660201 19.2463 0.816959 19.0877 0.816959 18.892C0.816959 18.6964 0.660201 18.5378 0.466829 18.5378C0.273458 18.5378 0.116699 18.6964 0.116699 18.892C0.116699 19.0877 0.273458 19.2463 0.466829 19.2463Z" fill="#171923"/>
<path d="M0.35013 12.9897C0.543501 12.9897 0.70026 12.8311 0.70026 12.6355C0.70026 12.4399 0.543501 12.2812 0.35013 12.2812C0.156759 12.2812 0 12.4399 0 12.6355C0 12.8311 0.156759 12.9897 0.35013 12.9897Z" fill="#171923"/>
<path d="M7.34922 14.0473C7.92933 14.0473 8.39961 13.5715 8.39961 12.9846C8.39961 12.3977 7.92933 11.9219 7.34922 11.9219C6.7691 11.9219 6.29883 12.3977 6.29883 12.9846C6.29883 13.5715 6.7691 14.0473 7.34922 14.0473Z" fill="#171923"/>
</svg>
